<svg xmlns="http://www.w3.org/2000/svg" xmlns:xlink="http://www.w3.org/1999/xlink" preserveAspectRatio="xMidYMid" width="24" height="15" viewBox="0 0 24 15">
  <defs>
    <style>
      .cls-1 {
        fill: #fff;
        fill-rule: evenodd;
      }
    </style>
  </defs>
  <path d="M21.350,8.070 L21.350,10.680 L19.422,10.680 L19.422,8.070 L16.772,8.070 L16.772,6.171 L19.422,6.171 L19.422,3.560 L21.350,3.560 L21.350,6.171 L24.000,6.171 L24.000,8.070 L21.350,8.070 ZM7.615,14.999 C3.410,14.999 0.001,11.642 0.001,7.499 C0.001,3.358 3.410,-0.000 7.615,-0.000 C9.595,-0.000 11.398,0.745 12.752,1.965 L10.508,4.130 C9.727,3.479 8.718,3.085 7.615,3.085 C5.140,3.085 3.133,5.061 3.133,7.499 C3.133,9.938 5.140,11.914 7.615,11.914 C9.530,11.914 11.164,10.731 11.806,9.065 L7.519,9.065 L7.519,5.933 L11.806,5.933 L15.037,5.933 L15.063,5.933 C15.172,6.438 15.229,6.963 15.229,7.499 C15.229,11.642 11.820,14.999 7.615,14.999 Z" class="cls-1"/>
</svg>
