<svg xmlns="http://www.w3.org/2000/svg" xmlns:xlink="http://www.w3.org/1999/xlink" preserveAspectRatio="xMidYMid" width="9.25" height="16" viewBox="0 0 9.25 16">
  <defs>
    <style>
      .cls-1 {
        fill: #fff;
        fill-rule: evenodd;
      }
    </style>
  </defs>
  <path d="M8.497,12.784 C8.206,12.925 7.649,13.049 7.233,13.059 C5.980,13.094 5.988,11.878 5.977,11.199 L5.977,6.400 L9.000,6.400 L9.000,3.999 L5.977,3.999 L5.977,-0.000 C5.977,-0.000 3.137,0.004 3.099,0.004 C3.062,0.004 2.996,0.038 2.987,0.125 C2.853,1.371 2.375,3.126 -0.000,3.999 L-0.000,6.403 L1.980,6.400 L1.980,12.000 C1.980,13.789 3.127,16.061 6.538,16.001 C7.689,15.981 8.968,15.490 9.250,15.065 L8.497,12.784 Z" class="cls-1"/>
</svg>
