<svg xmlns="http://www.w3.org/2000/svg" xmlns:xlink="http://www.w3.org/1999/xlink" preserveAspectRatio="xMidYMid" width="17" height="14" viewBox="0 0 17 14">
  <defs>
    <style>
      .cls-1 {
        fill: #fff;
        fill-rule: evenodd;
      }
    </style>
  </defs>
  <path d="M17.000,1.658 C16.375,1.939 15.702,2.128 14.997,2.215 C15.717,1.777 16.270,1.084 16.530,0.260 C15.856,0.665 15.110,0.958 14.315,1.117 C13.679,0.430 12.773,0.001 11.770,0.001 C9.844,0.001 8.282,1.583 8.282,3.535 C8.282,3.812 8.313,4.082 8.373,4.341 C5.475,4.193 2.905,2.786 1.186,0.648 C0.885,1.169 0.714,1.777 0.714,2.425 C0.714,3.651 1.330,4.733 2.265,5.366 C1.693,5.348 1.156,5.188 0.686,4.924 C0.686,4.939 0.686,4.953 0.686,4.968 C0.686,6.680 1.887,8.108 3.483,8.433 C3.190,8.513 2.883,8.558 2.564,8.558 C2.340,8.558 2.121,8.536 1.908,8.494 C2.352,9.898 3.640,10.920 5.166,10.948 C3.972,11.896 2.468,12.461 0.834,12.461 C0.553,12.461 0.275,12.445 0.002,12.412 C1.545,13.415 3.378,13.999 5.348,13.999 C11.762,13.999 15.270,8.614 15.270,3.944 C15.270,3.791 15.266,3.640 15.260,3.489 C15.941,2.989 16.533,2.367 17.000,1.659 L17.000,1.658 Z" class="cls-1"/>
</svg>
