<svg xmlns="http://www.w3.org/2000/svg" xmlns:xlink="http://www.w3.org/1999/xlink" preserveAspectRatio="xMidYMid" width="16" height="15" viewBox="0 0 16 15">
  <defs>
    <style>
      .cls-1 {
        fill: #fff;
        fill-rule: evenodd;
      }
    </style>
  </defs>
  <path d="M12.578,15.008 L12.578,9.595 C12.578,8.235 12.081,7.306 10.839,7.306 C9.893,7.306 9.328,7.931 9.082,8.536 C8.989,8.752 8.968,9.055 8.968,9.356 L8.968,15.008 L5.539,15.008 C5.539,15.008 5.584,5.838 5.539,4.889 L8.968,4.889 L8.968,6.323 C8.961,6.334 8.952,6.346 8.945,6.356 L8.968,6.356 L8.968,6.323 C9.423,5.634 10.236,4.652 12.058,4.652 C14.314,4.652 16.007,6.097 16.007,9.206 L16.007,15.008 L12.578,15.008 ZM1.926,3.507 L1.903,3.507 C0.752,3.507 0.009,2.732 0.009,1.760 C0.009,0.768 0.775,0.011 1.949,0.011 C3.122,0.011 3.844,0.768 3.865,1.760 C3.865,2.732 3.122,3.507 1.926,3.507 ZM3.640,15.008 L0.212,15.008 L0.212,4.889 L3.640,4.889 L3.640,15.008 Z" class="cls-1"/>
</svg>
