<svg xmlns="http://www.w3.org/2000/svg" xmlns:xlink="http://www.w3.org/1999/xlink" preserveAspectRatio="xMidYMid" width="75.031" height="34" viewBox="0 0 75.031 34">
  <defs>
    <style>
      .cls-1 {
        fill: #141414;
        fill-rule: evenodd;
      }
    </style>
  </defs>
  <path d="M74.645,21.497 C74.645,21.664 74.645,21.825 74.645,21.975 C74.645,22.127 74.627,22.285 74.594,22.453 C74.594,22.521 74.585,22.596 74.569,22.680 C74.551,22.763 74.543,22.855 74.543,22.957 C74.509,23.090 74.500,23.225 74.518,23.358 C74.535,23.493 74.627,23.609 74.797,23.709 C74.831,23.743 74.856,23.795 74.874,23.861 C74.890,23.930 74.916,23.995 74.950,24.063 C75.017,24.465 74.950,24.785 74.747,25.019 C74.611,25.219 74.594,25.421 74.696,25.621 C74.797,25.757 74.814,25.923 74.747,26.126 C74.712,26.293 74.687,26.444 74.670,26.578 C74.653,26.712 74.627,26.846 74.594,26.980 C74.560,27.080 74.543,27.214 74.543,27.383 C74.611,27.616 74.560,27.785 74.391,27.884 C74.289,27.953 74.195,28.036 74.111,28.136 C74.026,28.237 73.933,28.321 73.832,28.388 C73.798,28.455 73.763,28.506 73.730,28.538 C73.696,28.572 73.662,28.624 73.629,28.689 C73.594,28.689 73.578,28.706 73.578,28.740 C73.340,28.974 73.204,29.226 73.171,29.494 C73.171,29.562 73.103,29.662 72.968,29.796 C72.663,30.098 72.366,30.399 72.078,30.702 C71.790,31.004 71.527,31.338 71.291,31.707 C71.291,31.741 71.282,31.758 71.265,31.758 C71.248,31.758 71.240,31.775 71.240,31.807 C71.070,31.908 70.917,32.026 70.782,32.160 C70.646,32.294 70.511,32.445 70.376,32.612 C70.240,32.746 70.096,32.839 69.944,32.889 C69.791,32.939 69.630,32.998 69.461,33.065 C69.393,33.133 69.325,33.175 69.258,33.191 C69.189,33.209 69.122,33.249 69.054,33.316 C68.783,33.486 68.512,33.586 68.241,33.619 C68.038,33.619 67.842,33.652 67.657,33.719 C67.470,33.786 67.275,33.837 67.072,33.869 C66.869,33.937 66.682,33.970 66.513,33.970 C66.276,33.970 66.038,33.970 65.802,33.970 C65.564,33.970 65.310,33.937 65.039,33.869 C64.802,33.837 64.573,33.828 64.353,33.844 C64.132,33.862 63.904,33.869 63.667,33.869 C62.854,33.837 62.057,33.619 61.278,33.216 C61.142,33.149 61.015,33.081 60.897,33.014 C60.778,32.948 60.651,32.882 60.516,32.813 C60.482,32.813 60.414,32.763 60.312,32.663 C60.414,32.596 60.482,32.587 60.516,32.638 C60.549,32.688 60.600,32.730 60.668,32.763 C60.770,32.864 60.888,32.882 61.024,32.813 C61.024,32.746 61.007,32.696 60.973,32.663 C60.770,32.495 60.575,32.311 60.389,32.110 C60.202,31.908 59.990,31.725 59.753,31.557 C59.652,31.489 59.558,31.406 59.474,31.304 C59.389,31.205 59.296,31.102 59.194,31.004 L58.839,30.651 L58.635,30.853 C58.465,30.819 58.347,30.711 58.280,30.525 C58.211,30.341 58.229,30.166 58.330,29.997 C58.432,30.032 58.516,30.090 58.584,30.174 C58.652,30.257 58.754,30.267 58.889,30.198 C58.923,30.065 58.872,29.930 58.737,29.796 C58.635,29.695 58.542,29.595 58.457,29.494 C58.372,29.393 58.280,29.293 58.178,29.193 C58.076,29.091 58.008,29.042 57.975,29.042 C57.940,29.042 57.839,29.076 57.670,29.143 C57.534,28.974 57.432,28.824 57.365,28.689 C57.296,28.555 57.212,28.405 57.111,28.237 C57.042,28.070 56.958,27.910 56.856,27.759 C56.755,27.608 56.653,27.449 56.551,27.282 C56.721,27.046 56.670,26.795 56.399,26.526 C56.297,26.493 56.280,26.410 56.348,26.276 C56.416,26.208 56.458,26.126 56.475,26.025 C56.492,25.923 56.534,25.840 56.602,25.772 C56.568,25.671 56.501,25.605 56.399,25.572 C56.399,25.538 56.416,25.504 56.450,25.471 C56.551,25.338 56.568,25.188 56.501,25.019 C56.466,24.984 56.432,24.943 56.399,24.892 C56.365,24.841 56.331,24.816 56.297,24.816 C56.127,24.750 56.018,24.658 55.967,24.539 C55.916,24.423 55.857,24.297 55.789,24.163 C55.789,24.097 55.797,24.047 55.815,24.012 C55.831,23.978 55.822,23.930 55.789,23.861 C55.688,23.694 55.645,23.518 55.662,23.332 C55.679,23.149 55.704,22.957 55.738,22.754 L55.738,22.603 C55.704,22.437 55.688,22.252 55.688,22.050 C55.688,21.850 55.688,21.664 55.688,21.497 C55.688,21.397 55.704,21.297 55.738,21.196 C55.772,21.094 55.806,20.995 55.840,20.895 C55.873,20.793 55.891,20.660 55.891,20.492 C55.857,20.325 55.840,20.182 55.840,20.065 C55.840,19.946 55.840,19.805 55.840,19.636 C55.907,19.268 55.950,18.892 55.967,18.505 C55.984,18.120 56.026,17.742 56.094,17.373 C56.094,17.273 56.127,17.122 56.196,16.920 C56.196,16.854 56.212,16.787 56.247,16.720 C56.247,16.585 56.280,16.351 56.348,16.015 C56.382,15.948 56.399,15.882 56.399,15.815 C56.399,15.747 56.416,15.681 56.450,15.613 C56.450,15.580 56.441,15.556 56.424,15.538 C56.407,15.521 56.416,15.480 56.450,15.412 C56.483,15.211 56.517,15.003 56.551,14.783 C56.585,14.565 56.636,14.339 56.704,14.104 C56.737,13.970 56.771,13.845 56.806,13.726 C56.839,13.610 56.839,13.468 56.806,13.299 C56.806,13.199 56.822,13.090 56.856,12.972 C56.890,12.855 56.924,12.746 56.958,12.647 C56.991,12.478 57.017,12.302 57.034,12.118 C57.051,11.933 57.093,11.757 57.161,11.589 L57.314,11.137 C57.381,10.970 57.423,10.810 57.441,10.659 C57.458,10.507 57.517,10.349 57.619,10.182 C57.652,10.115 57.661,10.039 57.644,9.954 C57.627,9.872 57.635,9.795 57.670,9.729 C57.737,9.561 57.788,9.410 57.822,9.276 C57.855,9.141 57.906,9.008 57.975,8.873 C57.975,8.807 58.042,8.706 58.178,8.571 C58.313,8.372 58.364,8.204 58.330,8.069 C58.330,7.969 58.347,7.901 58.381,7.867 C58.516,7.633 58.635,7.390 58.737,7.139 C58.839,6.886 58.991,6.660 59.194,6.460 C59.228,6.427 59.245,6.375 59.245,6.309 C59.279,6.242 59.296,6.184 59.296,6.133 C59.296,6.082 59.313,6.040 59.347,6.007 C59.414,5.907 59.491,5.814 59.576,5.730 C59.660,5.646 59.685,5.537 59.652,5.402 C59.855,5.202 60.008,5.036 60.109,4.901 C60.008,4.767 59.990,4.641 60.058,4.524 C60.126,4.405 60.193,4.297 60.262,4.196 C60.431,3.962 60.609,3.735 60.795,3.517 C60.981,3.300 61.159,3.073 61.329,2.838 C61.464,2.671 61.583,2.520 61.685,2.385 C61.786,2.252 61.905,2.101 62.041,1.932 C62.210,1.665 62.447,1.429 62.752,1.229 C62.785,1.229 62.803,1.213 62.803,1.179 C62.905,0.944 63.141,0.827 63.514,0.827 C63.582,0.827 63.649,0.819 63.718,0.802 C63.785,0.784 63.853,0.777 63.921,0.777 C64.531,0.676 65.056,0.793 65.497,1.128 C65.802,1.330 66.157,1.380 66.564,1.280 L66.666,1.280 C67.072,1.280 67.487,1.288 67.911,1.304 C68.334,1.322 68.732,1.397 69.105,1.531 C69.173,1.531 69.223,1.539 69.258,1.556 C69.291,1.573 69.342,1.581 69.410,1.581 C69.681,1.614 69.918,1.681 70.122,1.782 C70.325,1.883 70.545,2.000 70.782,2.135 C70.986,2.201 71.138,2.269 71.240,2.335 C71.341,2.403 71.443,2.462 71.545,2.511 C71.646,2.562 71.765,2.619 71.900,2.688 C72.104,2.822 72.222,2.974 72.256,3.140 C72.358,3.308 72.425,3.409 72.459,3.441 C72.629,3.543 72.747,3.661 72.815,3.794 C72.883,3.929 72.950,4.079 73.019,4.247 L73.324,4.849 C73.324,4.884 73.331,4.917 73.349,4.951 C73.366,4.984 73.374,5.036 73.374,5.101 C73.408,5.270 73.433,5.445 73.451,5.630 C73.467,5.814 73.509,5.991 73.578,6.159 L73.578,6.309 C73.544,6.880 73.662,7.464 73.933,8.069 C74.001,8.204 74.035,8.420 74.035,8.722 C73.967,8.957 73.984,9.158 74.086,9.327 C74.153,9.394 74.188,9.444 74.188,9.477 C74.188,9.678 74.230,9.872 74.315,10.056 C74.399,10.240 74.424,10.451 74.391,10.684 C74.357,10.752 74.348,10.801 74.365,10.836 C74.382,10.869 74.391,10.918 74.391,10.987 C74.424,11.020 74.442,11.070 74.442,11.137 C74.373,11.540 74.442,11.858 74.645,12.094 L74.645,12.244 C74.577,12.612 74.569,12.956 74.620,13.274 C74.670,13.593 74.712,13.937 74.747,14.306 C74.780,14.474 74.814,14.650 74.848,14.833 C74.882,15.019 74.865,15.195 74.797,15.361 C74.763,15.430 74.755,15.480 74.772,15.513 C74.789,15.546 74.797,15.597 74.797,15.663 C74.831,15.999 74.856,16.325 74.874,16.644 C74.890,16.963 74.899,17.290 74.899,17.624 C74.899,17.793 74.882,17.926 74.848,18.027 C74.848,18.195 74.831,18.363 74.797,18.530 C74.763,18.699 74.747,18.865 74.747,19.033 C74.747,19.167 74.763,19.252 74.797,19.284 C74.899,19.452 74.932,19.586 74.899,19.686 C74.831,19.854 74.848,19.987 74.950,20.089 C75.017,20.224 75.017,20.341 74.950,20.442 C74.882,20.710 74.814,20.912 74.747,21.045 C74.747,21.145 74.712,21.297 74.645,21.497 ZM69.563,18.984 C69.528,18.145 69.528,17.306 69.563,16.468 L69.563,15.159 C69.528,14.859 69.503,14.565 69.486,14.280 C69.469,13.995 69.443,13.719 69.410,13.450 C69.410,13.283 69.410,13.123 69.410,12.972 C69.410,12.821 69.393,12.664 69.359,12.496 C69.359,12.327 69.351,12.176 69.334,12.041 C69.316,11.908 69.291,11.757 69.258,11.589 L69.207,11.488 C69.138,11.256 69.062,11.035 68.978,10.836 C68.893,10.633 68.817,10.416 68.749,10.182 C68.681,10.048 68.648,9.846 68.648,9.579 C68.614,9.511 68.597,9.376 68.597,9.175 C68.563,9.108 68.546,8.991 68.546,8.822 C68.546,8.420 68.427,7.986 68.190,7.516 C68.122,7.415 68.046,7.307 67.962,7.187 C67.877,7.071 67.800,6.963 67.733,6.862 C67.597,6.660 67.461,6.477 67.326,6.309 C67.190,6.141 67.038,5.974 66.869,5.805 C66.699,5.705 66.564,5.589 66.462,5.453 C66.361,5.320 66.241,5.169 66.106,5.001 C66.005,4.901 65.911,4.792 65.827,4.674 C65.742,4.556 65.649,4.448 65.547,4.347 C65.344,4.214 65.192,4.214 65.090,4.347 C64.954,4.515 64.836,4.698 64.734,4.901 C64.633,5.101 64.564,5.336 64.531,5.605 C64.531,5.874 64.463,6.125 64.328,6.357 C64.259,6.493 64.192,6.618 64.124,6.737 C64.056,6.854 64.023,6.997 64.023,7.163 C63.988,7.298 63.938,7.534 63.870,7.867 C63.836,8.035 63.811,8.204 63.794,8.372 C63.776,8.539 63.751,8.706 63.718,8.873 C63.718,8.908 63.709,8.933 63.692,8.949 C63.675,8.967 63.667,8.991 63.667,9.025 C63.565,9.293 63.489,9.552 63.438,9.804 C63.387,10.056 63.328,10.316 63.260,10.584 C63.192,10.918 63.125,11.170 63.057,11.337 C63.023,11.506 62.989,11.683 62.955,11.866 C62.921,12.051 62.870,12.244 62.803,12.444 C62.735,12.679 62.693,12.905 62.676,13.123 C62.658,13.343 62.616,13.568 62.549,13.802 C62.515,14.003 62.480,14.204 62.447,14.406 C62.413,14.606 62.379,14.808 62.345,15.010 L62.193,16.217 C62.193,16.417 62.168,16.619 62.117,16.820 C62.066,17.021 62.074,17.223 62.142,17.423 C62.210,17.592 62.252,17.760 62.269,17.926 C62.286,18.095 62.311,18.261 62.345,18.430 C62.345,18.631 62.362,18.781 62.396,18.881 C62.464,19.083 62.515,19.300 62.549,19.536 C62.582,19.771 62.633,19.987 62.701,20.190 C62.735,20.256 62.752,20.341 62.752,20.442 C62.785,20.710 62.811,20.979 62.828,21.245 C62.845,21.514 62.887,21.782 62.955,22.050 C62.989,22.252 62.989,22.446 62.955,22.629 C62.921,22.813 62.921,23.006 62.955,23.208 C62.989,23.307 62.997,23.401 62.981,23.485 C62.963,23.568 62.989,23.661 63.057,23.762 C63.125,23.795 63.159,23.895 63.159,24.063 C63.090,24.332 63.099,24.592 63.184,24.841 C63.268,25.093 63.344,25.354 63.413,25.621 C63.548,26.191 63.785,26.812 64.124,27.482 C64.293,27.851 64.480,28.230 64.683,28.614 C64.887,28.999 65.157,29.343 65.497,29.644 C65.767,29.947 66.072,30.032 66.411,29.897 C66.648,29.796 66.851,29.662 67.021,29.494 C67.190,29.359 67.334,29.226 67.453,29.091 C67.572,28.958 67.699,28.824 67.834,28.689 C68.173,28.421 68.394,28.036 68.495,27.533 C68.495,27.465 68.503,27.407 68.521,27.356 C68.537,27.306 68.546,27.249 68.546,27.181 C68.614,26.879 68.681,26.587 68.749,26.301 C68.817,26.016 68.884,25.723 68.953,25.421 C69.020,25.084 69.054,24.850 69.054,24.716 C69.088,24.548 69.122,24.382 69.156,24.214 C69.189,24.047 69.207,23.878 69.207,23.709 C69.240,23.510 69.258,23.299 69.258,23.082 C69.258,22.864 69.258,22.655 69.258,22.453 C69.325,22.086 69.367,21.742 69.385,21.422 C69.401,21.103 69.443,20.777 69.512,20.442 C69.579,20.173 69.605,19.922 69.588,19.686 C69.570,19.452 69.563,19.218 69.563,18.984 ZM53.009,33.769 C52.874,33.904 52.755,33.887 52.654,33.719 C52.552,33.619 52.382,33.602 52.145,33.669 C51.942,33.803 51.705,33.862 51.434,33.844 C51.162,33.828 50.926,33.753 50.722,33.619 C50.552,33.518 50.400,33.426 50.265,33.342 C50.129,33.258 49.977,33.166 49.808,33.065 C49.503,32.831 49.231,32.495 48.994,32.059 C48.926,31.891 48.842,31.716 48.740,31.531 C48.639,31.347 48.554,31.171 48.486,31.004 C48.316,30.735 48.156,30.466 48.003,30.198 C47.851,29.930 47.690,29.662 47.520,29.393 C47.283,29.059 47.088,28.706 46.936,28.338 C46.784,27.969 46.606,27.616 46.402,27.282 C46.165,26.912 45.962,26.535 45.792,26.150 C45.623,25.765 45.453,25.369 45.284,24.967 C45.216,24.766 45.123,24.564 45.005,24.364 C44.886,24.163 44.776,23.978 44.674,23.811 L43.912,22.453 C43.776,22.218 43.649,21.993 43.531,21.774 C43.412,21.556 43.285,21.314 43.150,21.045 L43.099,20.995 C42.827,20.761 42.598,20.525 42.413,20.290 C42.226,20.057 42.031,19.805 41.828,19.536 C41.794,19.469 41.726,19.385 41.625,19.284 C41.489,19.151 41.371,19.185 41.269,19.385 C41.235,19.452 41.218,19.503 41.218,19.536 C41.218,19.569 41.201,19.620 41.167,19.686 C41.167,19.854 41.159,20.031 41.142,20.215 C41.125,20.399 41.099,20.576 41.066,20.743 C41.066,20.844 41.074,20.952 41.091,21.069 C41.108,21.189 41.117,21.297 41.117,21.397 C41.117,21.664 41.108,21.909 41.091,22.127 C41.074,22.344 41.066,22.571 41.066,22.805 L41.066,23.057 C41.099,23.324 41.099,23.576 41.066,23.811 C40.997,23.978 40.997,24.163 41.066,24.364 C41.133,24.531 41.159,24.683 41.142,24.816 C41.125,24.951 41.117,25.101 41.117,25.269 C41.117,25.538 41.108,25.814 41.091,26.099 C41.074,26.384 41.099,26.661 41.167,26.929 C41.201,26.963 41.218,27.013 41.218,27.080 C41.184,27.249 41.175,27.390 41.193,27.508 C41.209,27.625 41.235,27.767 41.269,27.935 C41.269,28.103 41.277,28.279 41.294,28.463 C41.311,28.649 41.337,28.824 41.371,28.991 C41.404,29.160 41.413,29.311 41.396,29.444 C41.379,29.578 41.387,29.730 41.421,29.897 C41.421,30.098 41.438,30.267 41.472,30.399 C41.540,30.634 41.506,30.836 41.371,31.004 L41.218,31.304 C41.015,31.640 40.727,31.825 40.354,31.858 L39.795,31.858 C39.558,31.858 39.405,31.741 39.338,31.505 C39.236,31.238 39.134,30.970 39.033,30.702 C38.931,30.434 38.830,30.166 38.728,29.897 C38.626,29.527 38.389,29.242 38.016,29.042 C37.881,28.974 37.779,28.908 37.711,28.841 L37.711,28.790 C37.915,28.758 38.101,28.774 38.270,28.841 C38.270,28.874 38.304,28.890 38.372,28.890 L38.474,28.890 C38.507,28.858 38.525,28.814 38.525,28.765 C38.525,28.715 38.541,28.673 38.575,28.640 C38.575,28.606 38.567,28.572 38.550,28.538 C38.532,28.506 38.525,28.471 38.525,28.438 C38.456,28.304 38.431,28.221 38.448,28.186 C38.465,28.153 38.541,28.103 38.677,28.036 C38.779,28.003 38.830,27.935 38.830,27.835 C38.830,27.734 38.779,27.652 38.677,27.583 C38.575,27.583 38.490,27.600 38.423,27.633 C38.355,27.432 38.405,27.315 38.575,27.282 C38.710,27.282 38.779,27.249 38.779,27.181 C38.779,27.080 38.728,27.029 38.626,27.029 C38.558,26.997 38.516,26.989 38.499,27.005 C38.482,27.021 38.456,27.029 38.423,27.029 C38.456,26.896 38.474,26.744 38.474,26.578 C38.474,26.343 38.448,26.118 38.397,25.898 C38.347,25.679 38.287,25.471 38.220,25.269 C38.151,25.036 38.151,24.868 38.220,24.766 L38.220,24.515 C38.220,24.448 38.185,24.315 38.118,24.113 L38.118,23.709 C38.118,23.510 38.135,23.376 38.169,23.307 C38.202,23.174 38.185,23.040 38.118,22.905 C38.084,22.839 38.067,22.738 38.067,22.603 C38.135,22.370 38.151,22.144 38.118,21.924 C38.084,21.707 38.050,21.482 38.016,21.245 C37.948,21.012 37.948,20.761 38.016,20.492 C38.050,20.325 38.067,20.173 38.067,20.040 C38.067,19.905 38.067,19.755 38.067,19.586 C38.135,19.554 38.220,19.536 38.321,19.536 C38.355,19.434 38.372,19.352 38.372,19.284 C38.372,19.218 38.389,19.151 38.423,19.083 C38.423,18.917 38.372,18.832 38.270,18.832 C38.202,18.799 38.118,18.781 38.016,18.781 C37.982,18.682 37.965,18.573 37.965,18.454 C37.965,18.338 37.948,18.212 37.915,18.078 C37.915,17.943 37.906,17.826 37.889,17.726 C37.872,17.624 37.864,17.524 37.864,17.423 C37.830,17.357 37.813,17.273 37.813,17.172 C37.881,17.039 37.897,16.913 37.864,16.794 C37.830,16.678 37.813,16.536 37.813,16.367 C37.677,16.166 37.652,15.965 37.737,15.764 C37.821,15.563 37.830,15.361 37.762,15.159 C37.830,15.059 37.846,14.968 37.813,14.883 C37.779,14.800 37.745,14.708 37.711,14.606 C37.711,14.306 37.728,14.071 37.762,13.903 C37.762,13.770 37.779,13.668 37.813,13.601 L38.016,13.601 C38.050,13.601 38.101,13.568 38.169,13.501 C38.135,13.501 38.118,13.484 38.118,13.450 C38.118,13.416 38.101,13.400 38.067,13.400 L37.711,13.400 L37.711,13.199 C37.711,12.863 37.694,12.612 37.660,12.444 C37.626,12.379 37.618,12.286 37.635,12.168 C37.652,12.051 37.660,11.942 37.660,11.842 C37.694,11.708 37.711,11.582 37.711,11.463 C37.711,11.347 37.745,11.222 37.813,11.086 C37.881,11.020 37.881,10.953 37.813,10.885 C37.779,10.719 37.796,10.467 37.864,10.131 C37.965,9.729 38.016,9.344 38.016,8.974 L38.016,8.774 C38.050,8.706 38.067,8.639 38.067,8.571 C37.999,8.437 37.973,8.303 37.991,8.169 C38.008,8.035 38.016,7.901 38.016,7.766 L38.016,7.114 C38.016,7.046 38.033,7.013 38.067,7.013 C38.135,6.880 38.185,6.737 38.220,6.586 C38.253,6.435 38.287,6.276 38.321,6.108 C38.355,6.073 38.372,6.024 38.372,5.956 C38.440,5.689 38.541,5.428 38.677,5.177 C38.812,4.926 38.931,4.666 39.033,4.398 L39.185,4.247 C39.287,4.114 39.338,3.962 39.338,3.794 C39.405,3.458 39.507,3.173 39.643,2.938 C39.812,2.671 40.015,2.437 40.253,2.234 C40.489,2.033 40.743,1.833 41.015,1.632 C41.353,1.363 41.709,1.128 42.082,0.927 C42.455,0.726 42.827,0.542 43.200,0.373 C43.776,0.106 44.361,-0.020 44.954,-0.003 C45.546,0.014 46.131,0.106 46.707,0.274 C47.317,0.442 47.859,0.642 48.334,0.876 C48.469,0.944 48.596,1.020 48.715,1.103 C48.833,1.187 48.960,1.263 49.096,1.330 C49.198,1.397 49.307,1.472 49.426,1.556 C49.545,1.640 49.655,1.715 49.757,1.782 C50.028,1.983 50.273,2.185 50.494,2.385 C50.714,2.587 50.926,2.822 51.129,3.090 C51.231,3.259 51.340,3.409 51.459,3.543 C51.578,3.677 51.688,3.828 51.790,3.995 C51.925,4.163 52.010,4.322 52.044,4.473 C52.077,4.623 52.111,4.783 52.145,4.951 C52.179,5.151 52.204,5.354 52.222,5.555 C52.238,5.755 52.280,5.939 52.349,6.108 C52.416,6.242 52.442,6.357 52.425,6.460 C52.408,6.560 52.400,6.660 52.400,6.760 C52.331,6.829 52.315,6.880 52.349,6.911 C52.416,7.147 52.400,7.365 52.298,7.567 C52.196,7.766 52.162,7.986 52.196,8.221 C52.196,8.253 52.188,8.278 52.171,8.294 C52.153,8.311 52.145,8.338 52.145,8.372 C52.077,8.505 52.026,8.623 51.993,8.722 C51.959,8.822 51.959,8.943 51.993,9.076 C52.026,9.175 52.026,9.267 51.993,9.352 C51.959,9.435 51.925,9.527 51.891,9.629 C51.857,9.762 51.823,9.881 51.790,9.979 C51.756,10.080 51.721,10.199 51.688,10.332 C51.654,10.567 51.586,10.776 51.485,10.961 C51.383,11.146 51.298,11.355 51.231,11.589 C51.231,11.623 51.222,11.639 51.205,11.639 C51.188,11.639 51.180,11.657 51.180,11.691 C51.078,11.825 50.984,11.959 50.900,12.094 C50.815,12.227 50.739,12.379 50.672,12.544 C50.570,12.713 50.476,12.888 50.392,13.074 C50.307,13.258 50.180,13.434 50.011,13.601 C49.808,13.903 49.587,14.173 49.350,14.406 C49.316,14.439 49.299,14.474 49.299,14.506 C49.299,14.540 49.282,14.574 49.248,14.606 C49.248,14.641 49.240,14.675 49.223,14.708 C49.206,14.742 49.198,14.775 49.198,14.808 C49.096,14.942 49.002,15.059 48.918,15.159 C48.833,15.261 48.740,15.379 48.639,15.513 C48.604,15.580 48.570,15.622 48.537,15.638 C48.503,15.655 48.469,15.681 48.435,15.713 L48.130,16.015 C47.995,16.150 47.876,16.150 47.775,16.015 C47.673,15.915 47.520,15.882 47.317,15.915 C47.181,15.983 47.054,16.040 46.936,16.091 C46.817,16.141 46.690,16.200 46.555,16.266 C46.419,16.335 46.334,16.435 46.301,16.568 C46.165,16.870 45.911,17.089 45.538,17.223 C45.267,17.324 45.063,17.474 44.928,17.675 C44.860,17.775 44.776,17.859 44.674,17.926 C44.369,18.195 44.335,18.479 44.573,18.781 C44.640,18.849 44.682,18.925 44.700,19.008 C44.716,19.091 44.758,19.167 44.827,19.235 C45.063,19.604 45.318,19.905 45.589,20.139 L46.352,20.895 C46.521,21.063 46.682,21.229 46.834,21.397 C46.987,21.565 47.131,21.732 47.266,21.899 C47.639,22.370 47.944,22.940 48.181,23.609 C48.215,23.779 48.265,23.920 48.334,24.038 C48.401,24.154 48.469,24.280 48.537,24.414 C48.604,24.548 48.681,24.683 48.766,24.816 C48.850,24.951 48.926,25.084 48.994,25.219 C49.231,25.621 49.434,26.074 49.604,26.578 C49.706,26.778 49.815,26.956 49.935,27.106 C50.053,27.256 50.180,27.416 50.316,27.583 C50.417,27.751 50.519,27.893 50.621,28.011 C50.722,28.128 50.824,28.270 50.926,28.438 C51.027,28.606 51.129,28.765 51.231,28.916 C51.332,29.067 51.434,29.226 51.536,29.393 C51.603,29.494 51.654,29.604 51.688,29.720 C51.721,29.838 51.772,29.963 51.840,30.098 C51.874,30.131 51.883,30.157 51.866,30.174 C51.848,30.190 51.857,30.215 51.891,30.248 C51.959,30.349 52.026,30.458 52.095,30.577 C52.162,30.694 52.230,30.802 52.298,30.903 C52.365,31.004 52.425,31.102 52.476,31.205 C52.527,31.304 52.585,31.406 52.654,31.505 C52.721,31.573 52.772,31.649 52.806,31.733 C52.840,31.817 52.890,31.891 52.959,31.959 C53.162,32.226 53.331,32.596 53.467,33.065 C53.569,33.300 53.484,33.501 53.213,33.669 L53.009,33.769 ZM38.347,14.079 C38.296,14.063 38.236,14.020 38.169,13.953 C38.135,14.155 38.135,14.324 38.169,14.457 C38.236,14.523 38.304,14.557 38.372,14.557 C38.474,14.557 38.525,14.506 38.525,14.406 C38.558,14.373 38.541,14.306 38.474,14.204 C38.440,14.137 38.397,14.096 38.347,14.079 ZM38.575,10.434 C38.575,10.499 38.558,10.567 38.525,10.633 C38.423,10.735 38.440,10.784 38.575,10.784 C38.609,10.784 38.660,10.752 38.728,10.684 C38.728,10.551 38.745,10.451 38.779,10.382 C38.643,10.349 38.575,10.366 38.575,10.434 ZM38.728,21.950 C38.558,21.950 38.474,22.035 38.474,22.201 C38.474,22.303 38.558,22.352 38.728,22.352 C38.863,22.352 38.931,22.285 38.931,22.151 C38.931,22.018 38.863,21.950 38.728,21.950 ZM45.005,11.916 C45.292,11.732 45.572,11.523 45.843,11.288 C46.114,11.020 46.343,10.759 46.529,10.507 C46.715,10.256 46.893,9.979 47.063,9.678 C47.232,9.410 47.401,9.133 47.571,8.847 C47.740,8.564 47.910,8.270 48.080,7.969 C48.215,7.734 48.350,7.516 48.486,7.313 C48.621,7.114 48.740,6.895 48.842,6.660 C48.944,6.357 49.020,6.057 49.071,5.755 C49.121,5.453 49.180,5.135 49.248,4.800 C49.248,4.331 49.147,3.911 48.944,3.543 C48.875,3.441 48.799,3.341 48.715,3.240 C48.630,3.140 48.537,3.057 48.435,2.990 C48.265,2.888 48.113,2.813 47.978,2.763 C47.842,2.713 47.690,2.655 47.520,2.587 C47.216,2.486 46.944,2.453 46.707,2.486 C45.962,2.587 45.250,2.872 44.573,3.341 C44.369,3.509 44.157,3.668 43.937,3.819 C43.717,3.971 43.522,4.163 43.353,4.398 C43.217,4.565 43.099,4.724 42.997,4.875 C42.895,5.026 42.810,5.202 42.743,5.402 C42.675,5.638 42.624,5.865 42.591,6.082 C42.556,6.301 42.540,6.527 42.540,6.760 C42.540,7.131 42.489,7.481 42.387,7.818 C42.353,7.918 42.328,8.026 42.311,8.144 C42.294,8.263 42.268,8.372 42.235,8.472 C42.235,8.639 42.243,8.791 42.260,8.924 C42.277,9.058 42.268,9.209 42.235,9.376 C42.166,9.544 42.133,9.729 42.133,9.929 C42.133,10.131 42.116,10.316 42.082,10.482 C42.048,10.651 42.031,10.801 42.031,10.936 C42.031,11.070 42.014,11.222 41.981,11.389 C41.946,11.558 41.921,11.708 41.904,11.842 C41.887,11.976 41.896,12.126 41.930,12.293 L41.930,12.496 C41.896,12.628 41.870,12.763 41.854,12.897 C41.836,13.031 41.811,13.165 41.777,13.299 C41.777,13.367 41.777,13.442 41.777,13.526 C41.777,13.610 41.811,13.685 41.879,13.753 C42.014,13.853 42.166,13.837 42.336,13.701 C42.370,13.701 42.387,13.685 42.387,13.651 L43.302,13.048 C43.437,12.948 43.573,12.846 43.709,12.746 C43.844,12.647 43.996,12.544 44.166,12.444 C44.437,12.277 44.716,12.102 45.005,11.916 ZM33.717,13.199 C33.649,13.299 33.573,13.400 33.488,13.501 C33.403,13.601 33.327,13.719 33.260,13.853 C33.191,14.088 33.039,14.204 32.802,14.204 C32.701,14.239 32.616,14.324 32.548,14.457 L32.548,14.557 C32.548,14.757 32.531,14.926 32.497,15.059 C32.429,15.127 32.361,15.195 32.294,15.261 C32.226,15.328 32.124,15.379 31.989,15.412 L31.938,15.461 C31.938,15.530 31.929,15.580 31.913,15.613 C31.895,15.646 31.887,15.698 31.887,15.764 C31.786,15.864 31.735,15.948 31.735,16.015 C31.735,16.083 31.717,16.133 31.684,16.166 C31.616,16.234 31.608,16.291 31.659,16.343 C31.709,16.393 31.701,16.452 31.633,16.518 C31.497,16.585 31.396,16.653 31.328,16.720 L31.328,16.820 C31.260,16.887 31.209,16.947 31.176,16.996 C31.142,17.047 31.091,17.071 31.023,17.071 C30.853,17.138 30.668,17.306 30.464,17.575 C30.159,17.575 29.888,17.760 29.651,18.128 C29.481,18.128 29.363,18.145 29.295,18.178 C29.261,18.212 29.236,18.253 29.219,18.304 C29.202,18.354 29.176,18.380 29.143,18.380 C28.973,18.447 28.838,18.522 28.736,18.605 C28.635,18.690 28.499,18.765 28.330,18.832 C28.261,18.900 28.203,18.925 28.152,18.908 C28.101,18.892 28.058,18.900 28.025,18.933 C27.923,19.000 27.787,19.033 27.618,19.033 L27.313,19.033 C27.143,19.000 26.983,18.992 26.830,19.008 C26.678,19.024 26.517,19.033 26.348,19.033 L26.195,19.033 C26.127,19.134 26.051,19.185 25.966,19.185 C25.881,19.185 25.805,19.218 25.738,19.284 C25.669,19.352 25.593,19.393 25.509,19.411 C25.424,19.427 25.348,19.469 25.280,19.536 C25.179,19.604 25.094,19.695 25.026,19.813 C24.958,19.930 24.958,20.022 25.026,20.089 C25.094,20.157 25.119,20.215 25.102,20.264 C25.085,20.316 25.077,20.375 25.077,20.442 C25.043,20.540 25.026,20.692 25.026,20.895 C25.026,20.961 25.034,21.003 25.051,21.020 C25.068,21.037 25.059,21.079 25.026,21.145 C24.924,21.145 24.924,21.196 25.026,21.297 C25.094,21.397 25.119,21.497 25.102,21.599 C25.085,21.699 25.094,21.799 25.128,21.899 C25.059,21.967 25.043,22.026 25.077,22.075 C25.110,22.127 25.144,22.185 25.179,22.252 C25.246,22.386 25.280,22.571 25.280,22.805 C25.280,22.905 25.288,23.014 25.306,23.131 C25.322,23.251 25.331,23.358 25.331,23.459 C25.399,23.527 25.415,23.576 25.382,23.609 C25.314,23.709 25.314,23.795 25.382,23.861 C25.415,24.197 25.441,24.515 25.458,24.816 C25.475,25.118 25.517,25.439 25.585,25.772 C25.585,25.907 25.602,25.991 25.636,26.025 C25.669,26.058 25.687,26.143 25.687,26.276 C25.653,26.410 25.644,26.501 25.661,26.552 C25.678,26.602 25.704,26.712 25.738,26.879 C25.771,27.013 25.805,27.130 25.839,27.231 C25.873,27.331 25.890,27.449 25.890,27.583 C25.923,27.652 25.941,27.726 25.941,27.810 C25.941,27.893 25.974,27.969 26.043,28.036 C26.110,28.169 26.161,28.295 26.195,28.413 C26.228,28.530 26.279,28.657 26.348,28.790 C26.381,28.858 26.390,28.908 26.373,28.941 C26.355,28.974 26.381,29.025 26.449,29.091 L26.551,29.293 C26.584,29.393 26.635,29.578 26.703,29.846 C26.805,29.947 26.889,30.015 26.957,30.047 C26.991,30.047 27.034,30.065 27.085,30.098 C27.135,30.131 27.194,30.115 27.262,30.047 C27.262,30.015 27.296,29.997 27.364,29.997 C27.533,30.065 27.686,30.073 27.821,30.023 C27.956,29.972 28.109,29.930 28.279,29.897 C28.956,29.829 29.600,29.730 30.210,29.595 C30.379,29.562 30.541,29.536 30.693,29.519 C30.845,29.503 31.006,29.479 31.176,29.444 C31.345,29.410 31.497,29.368 31.633,29.318 C31.768,29.268 31.921,29.226 32.091,29.193 C32.158,29.193 32.192,29.160 32.192,29.091 C32.260,29.025 32.327,28.974 32.396,28.941 C32.463,28.908 32.548,28.874 32.650,28.841 C32.650,29.008 32.632,29.091 32.599,29.091 C32.531,29.125 32.463,29.210 32.396,29.343 C32.327,29.479 32.251,29.595 32.167,29.695 C32.082,29.796 32.006,29.913 31.938,30.047 C31.904,30.115 31.862,30.140 31.811,30.122 C31.760,30.106 31.717,30.131 31.684,30.198 C31.582,30.366 31.463,30.492 31.328,30.577 C31.193,30.659 31.074,30.768 30.973,30.903 C30.837,31.036 30.769,31.154 30.769,31.254 C30.769,31.388 30.718,31.473 30.617,31.505 C30.481,31.541 30.363,31.640 30.261,31.807 C30.125,31.942 30.024,32.026 29.956,32.059 C29.922,32.059 29.837,32.127 29.702,32.261 C29.634,32.328 29.532,32.461 29.397,32.663 C29.227,32.629 29.083,32.672 28.965,32.789 C28.846,32.906 28.719,33.014 28.584,33.116 C28.448,33.249 28.245,33.351 27.974,33.417 C27.906,33.451 27.847,33.467 27.796,33.467 C27.745,33.467 27.686,33.501 27.618,33.568 C27.550,33.635 27.415,33.669 27.212,33.669 C27.110,33.703 27.016,33.719 26.932,33.719 C26.847,33.719 26.771,33.753 26.703,33.820 L26.551,33.820 C26.415,33.786 26.297,33.777 26.195,33.795 C26.093,33.812 25.974,33.820 25.839,33.820 C25.771,33.820 25.695,33.803 25.611,33.769 C25.526,33.736 25.449,33.703 25.382,33.669 C25.179,33.568 24.975,33.501 24.772,33.467 C24.569,33.435 24.365,33.384 24.162,33.316 C24.094,33.284 24.043,33.267 24.010,33.267 C23.975,33.267 23.925,33.249 23.857,33.216 C23.789,33.183 23.738,33.149 23.705,33.116 C23.671,33.081 23.636,33.065 23.603,33.065 C23.535,33.065 23.484,33.049 23.451,33.014 C23.416,32.982 23.366,32.964 23.298,32.964 C23.095,32.932 22.942,32.831 22.841,32.663 C22.739,32.495 22.620,32.361 22.485,32.261 C22.417,32.026 22.298,31.834 22.129,31.682 C21.959,31.531 21.841,31.338 21.773,31.102 C21.739,31.036 21.697,30.961 21.646,30.877 C21.595,30.794 21.536,30.719 21.468,30.651 C21.434,30.586 21.426,30.508 21.443,30.425 C21.460,30.341 21.434,30.267 21.367,30.198 C21.265,30.131 21.180,29.997 21.113,29.796 C21.078,29.730 21.070,29.644 21.087,29.545 C21.104,29.444 21.095,29.359 21.062,29.293 C21.062,29.160 21.028,29.108 20.960,29.143 L20.909,29.091 L20.757,28.488 C20.689,28.288 20.655,28.153 20.655,28.086 C20.621,28.019 20.612,27.960 20.630,27.910 C20.646,27.859 20.621,27.803 20.554,27.734 C20.519,27.734 20.503,27.717 20.503,27.684 C20.536,27.517 20.519,27.331 20.452,27.130 C20.384,26.929 20.333,26.744 20.299,26.578 C20.299,26.107 20.231,25.740 20.096,25.471 C20.062,25.303 20.045,25.162 20.045,25.043 C20.045,24.927 20.028,24.785 19.995,24.616 C19.960,24.515 19.944,24.414 19.944,24.315 C19.944,24.214 19.910,24.097 19.842,23.962 C19.740,23.861 19.740,23.762 19.842,23.661 L19.842,23.609 L19.842,22.603 C19.842,22.469 19.833,22.344 19.817,22.227 C19.799,22.110 19.825,21.983 19.893,21.850 L19.893,21.799 C19.859,21.599 19.842,21.406 19.842,21.221 C19.842,21.037 19.842,20.860 19.842,20.692 L19.842,20.089 C19.842,19.956 19.833,19.838 19.817,19.737 C19.799,19.636 19.791,19.536 19.791,19.434 C19.791,19.335 19.808,19.268 19.842,19.235 C19.875,19.134 19.859,19.050 19.791,18.984 L19.791,18.933 L19.791,18.832 C19.859,18.765 19.875,18.682 19.842,18.581 C19.808,18.479 19.791,18.380 19.791,18.279 C19.791,18.111 19.774,17.951 19.740,17.801 C19.706,17.650 19.723,17.491 19.791,17.324 C19.825,17.156 19.842,17.013 19.842,16.895 C19.842,16.778 19.842,16.653 19.842,16.518 C19.910,16.452 19.926,16.386 19.893,16.317 C19.859,16.251 19.842,16.183 19.842,16.117 C19.875,16.015 19.884,15.907 19.867,15.790 C19.850,15.671 19.875,15.546 19.944,15.412 C19.977,15.412 19.995,15.361 19.995,15.261 C19.995,15.195 19.986,15.110 19.969,15.010 C19.952,14.909 19.960,14.825 19.995,14.757 C20.028,14.691 20.045,14.606 20.045,14.506 C20.045,14.306 20.062,14.173 20.096,14.104 C20.164,13.937 20.198,13.753 20.198,13.551 C20.198,13.351 20.231,13.165 20.299,12.998 L20.299,12.846 L20.299,12.696 C20.367,12.561 20.392,12.419 20.376,12.267 C20.358,12.118 20.367,11.959 20.401,11.791 C20.469,11.589 20.536,11.397 20.604,11.212 C20.672,11.029 20.739,10.836 20.808,10.633 C20.841,10.602 20.859,10.533 20.859,10.434 C20.824,10.332 20.824,10.231 20.859,10.131 C20.892,10.031 20.926,9.929 20.960,9.829 C20.960,9.729 20.977,9.629 21.011,9.527 C21.044,9.426 21.078,9.344 21.113,9.276 C21.113,9.175 21.138,9.092 21.189,9.025 C21.240,8.957 21.248,8.873 21.214,8.774 C21.180,8.706 21.180,8.623 21.214,8.522 C21.248,8.420 21.265,8.338 21.265,8.270 C21.298,8.204 21.333,8.127 21.367,8.043 C21.400,7.961 21.418,7.884 21.418,7.818 C21.451,7.750 21.460,7.684 21.443,7.616 C21.426,7.550 21.434,7.481 21.468,7.415 C21.536,7.282 21.587,7.156 21.621,7.037 C21.654,6.920 21.654,6.779 21.621,6.610 C21.756,6.443 21.815,6.258 21.799,6.057 C21.781,5.857 21.807,5.672 21.875,5.504 C21.943,5.370 21.977,5.252 21.977,5.151 C22.044,4.884 22.112,4.607 22.180,4.322 C22.247,4.038 22.315,3.761 22.383,3.492 C22.417,3.458 22.434,3.392 22.434,3.291 C22.502,3.023 22.569,2.822 22.637,2.688 C22.705,2.520 22.747,2.478 22.764,2.562 C22.781,2.645 22.807,2.604 22.841,2.437 C22.841,2.369 22.823,2.361 22.790,2.411 C22.756,2.462 22.722,2.453 22.688,2.385 C22.688,2.318 22.714,2.269 22.764,2.234 C22.815,2.201 22.823,2.152 22.790,2.084 C22.790,1.951 22.823,1.867 22.892,1.833 C23.095,1.967 23.349,1.967 23.654,1.833 C23.721,1.799 23.806,1.799 23.908,1.833 C23.975,1.867 24.077,1.883 24.213,1.883 C24.280,1.883 24.306,1.867 24.289,1.833 C24.272,1.799 24.297,1.815 24.365,1.883 C24.467,1.916 24.560,1.875 24.645,1.757 C24.729,1.640 24.805,1.614 24.874,1.681 C24.907,1.715 24.967,1.707 25.051,1.657 C25.136,1.606 25.179,1.598 25.179,1.632 C25.348,1.799 25.441,1.807 25.458,1.657 C25.475,1.505 25.568,1.380 25.738,1.280 C25.839,1.213 25.958,1.221 26.093,1.304 C26.228,1.388 26.348,1.397 26.449,1.330 C26.618,1.263 26.780,1.187 26.932,1.103 C27.085,1.020 27.245,0.944 27.415,0.876 C27.482,0.844 27.550,0.809 27.618,0.777 C27.686,0.743 27.753,0.726 27.821,0.726 C27.923,0.692 28.016,0.659 28.101,0.625 C28.185,0.593 28.279,0.559 28.380,0.525 L28.431,0.474 C28.600,0.442 28.770,0.408 28.940,0.373 C29.109,0.340 29.278,0.307 29.448,0.274 C29.617,0.240 29.786,0.215 29.956,0.198 C30.125,0.182 30.294,0.173 30.464,0.173 C30.668,0.173 30.904,0.207 31.176,0.274 C31.514,0.340 31.752,0.424 31.887,0.525 C31.887,0.559 31.879,0.584 31.862,0.600 C31.845,0.617 31.837,0.642 31.837,0.676 C31.837,0.977 31.735,1.179 31.532,1.280 C31.463,1.314 31.405,1.355 31.354,1.404 C31.303,1.455 31.227,1.497 31.125,1.531 C31.023,1.565 31.006,1.681 31.074,1.883 L31.074,1.932 L31.074,1.983 C31.006,2.017 30.947,2.041 30.896,2.059 C30.845,2.076 30.786,2.119 30.718,2.185 C30.684,2.252 30.668,2.385 30.668,2.587 C30.668,2.721 30.617,2.805 30.515,2.838 C30.312,2.938 30.159,3.107 30.058,3.341 C30.058,3.441 30.024,3.492 29.956,3.492 C29.854,3.560 29.769,3.627 29.702,3.693 C29.634,3.761 29.566,3.828 29.499,3.895 C29.227,4.264 28.905,4.531 28.533,4.698 C28.499,4.698 28.482,4.708 28.482,4.724 C28.482,4.742 28.465,4.750 28.431,4.750 C28.228,4.750 28.033,4.809 27.847,4.926 C27.660,5.044 27.482,5.135 27.313,5.202 C27.177,5.235 27.059,5.270 26.957,5.303 C26.856,5.336 26.737,5.370 26.602,5.402 C26.466,5.402 26.364,5.420 26.297,5.453 C26.228,5.453 26.161,5.487 26.093,5.555 C25.992,5.654 25.873,5.672 25.738,5.605 C25.636,5.504 25.551,5.537 25.484,5.705 C25.314,5.939 25.246,6.141 25.280,6.309 L25.280,6.509 C25.179,6.712 25.161,6.929 25.229,7.163 C25.263,7.265 25.246,7.357 25.179,7.440 C25.110,7.525 25.094,7.616 25.128,7.716 C25.128,7.750 25.119,7.784 25.102,7.818 C25.085,7.851 25.077,7.884 25.077,7.918 C25.110,8.287 25.110,8.639 25.077,8.974 L25.077,9.076 C25.110,9.344 25.128,9.596 25.128,9.829 C25.128,10.063 25.144,10.316 25.179,10.584 C25.179,10.617 25.170,10.651 25.153,10.684 C25.136,10.719 25.128,10.752 25.128,10.784 C25.128,10.853 25.136,10.927 25.153,11.011 C25.170,11.095 25.179,11.170 25.179,11.238 C25.212,11.272 25.229,11.321 25.229,11.389 C25.195,11.523 25.179,11.757 25.179,12.094 C25.280,12.293 25.331,12.478 25.331,12.647 C25.297,12.713 25.288,12.798 25.306,12.897 C25.322,12.998 25.297,13.082 25.229,13.148 C25.263,13.317 25.246,13.484 25.179,13.651 C25.110,13.820 25.110,13.987 25.179,14.155 C25.212,14.324 25.297,14.406 25.433,14.406 C25.500,14.373 25.560,14.356 25.611,14.356 C25.661,14.356 25.720,14.324 25.788,14.255 C25.856,14.222 25.916,14.204 25.966,14.204 C26.017,14.204 26.076,14.189 26.144,14.155 C26.212,14.155 26.246,14.137 26.246,14.104 C26.313,14.003 26.415,13.953 26.551,13.953 C26.686,13.953 26.787,13.920 26.856,13.853 C27.025,13.853 27.161,13.827 27.262,13.778 C27.364,13.726 27.499,13.685 27.669,13.651 C27.872,13.651 28.007,13.619 28.076,13.551 C28.211,13.484 28.338,13.450 28.457,13.450 C28.575,13.450 28.685,13.416 28.787,13.351 L28.838,13.299 L29.905,13.148 C30.040,13.115 30.159,13.082 30.261,13.048 C30.363,13.015 30.481,12.981 30.617,12.948 C30.752,12.915 30.888,12.863 31.023,12.798 C31.158,12.730 31.311,12.730 31.481,12.798 L31.684,12.798 C31.853,12.763 32.014,12.738 32.167,12.721 C32.319,12.705 32.480,12.696 32.650,12.696 C32.886,12.628 33.107,12.647 33.310,12.746 C33.378,12.746 33.438,12.738 33.488,12.721 C33.539,12.705 33.598,12.713 33.666,12.746 C33.768,12.746 33.870,12.763 33.971,12.798 C33.903,12.863 33.852,12.932 33.819,12.998 C33.785,13.066 33.750,13.132 33.717,13.199 ZM15.090,13.400 L15.090,13.903 L15.090,14.859 C15.090,14.960 15.081,15.069 15.065,15.185 C15.047,15.303 15.056,15.412 15.090,15.513 C15.090,15.681 15.098,15.840 15.116,15.989 C15.132,16.141 15.124,16.300 15.090,16.468 C15.090,16.703 15.098,16.939 15.116,17.172 C15.132,17.407 15.107,17.642 15.039,17.877 L15.039,18.027 C15.107,18.296 15.090,18.598 14.989,18.933 L14.989,19.083 C15.056,19.252 15.073,19.419 15.039,19.586 C15.005,19.755 14.954,19.922 14.887,20.089 L14.887,20.442 C14.853,20.540 14.836,20.635 14.836,20.718 C14.836,20.802 14.819,20.895 14.785,20.995 L14.785,24.465 C14.785,24.564 14.777,24.667 14.760,24.766 C14.742,24.868 14.734,24.967 14.734,25.068 C14.734,25.338 14.717,25.521 14.684,25.621 C14.684,25.723 14.675,25.822 14.658,25.923 C14.641,26.025 14.633,26.126 14.633,26.224 L14.633,26.376 C14.734,26.645 14.768,26.888 14.734,27.106 C14.700,27.323 14.666,27.566 14.633,27.835 C14.633,27.902 14.565,28.003 14.429,28.136 C14.328,28.237 14.217,28.330 14.099,28.413 C13.980,28.497 13.853,28.589 13.718,28.689 C13.582,28.790 13.413,28.790 13.210,28.689 C13.115,28.596 13.020,28.631 12.924,28.770 C12.825,28.744 12.749,28.798 12.701,28.941 L12.600,29.143 C12.531,29.311 12.397,29.359 12.193,29.293 C12.092,29.193 12.041,29.193 12.041,29.293 C11.972,29.359 11.905,29.393 11.837,29.393 C11.769,29.393 11.702,29.393 11.634,29.393 C11.397,29.327 11.177,29.327 10.973,29.393 C10.803,29.393 10.668,29.494 10.567,29.695 C10.465,29.897 10.329,29.897 10.160,29.695 C9.923,29.327 9.694,28.950 9.474,28.564 C9.253,28.178 9.110,27.751 9.042,27.282 C8.872,26.645 8.805,26.091 8.839,25.621 C8.839,25.421 8.847,25.084 8.864,24.616 C8.881,24.146 8.906,23.652 8.940,23.131 C8.974,22.613 8.999,22.119 9.017,21.647 C9.033,21.180 9.059,20.844 9.093,20.642 C9.093,20.475 9.093,20.316 9.093,20.165 C9.093,20.013 9.110,19.854 9.144,19.686 C9.144,19.452 9.152,19.227 9.169,19.008 C9.186,18.791 9.195,18.563 9.195,18.328 C9.228,18.161 9.160,18.078 8.991,18.078 C8.855,18.078 8.652,18.111 8.381,18.178 C8.280,18.178 8.178,18.187 8.076,18.203 C7.975,18.220 7.873,18.228 7.771,18.228 C7.737,18.261 7.703,18.279 7.670,18.279 C7.636,18.279 7.602,18.312 7.568,18.380 C7.432,18.447 7.347,18.463 7.314,18.430 C7.178,18.328 7.051,18.287 6.933,18.304 C6.814,18.321 6.687,18.346 6.552,18.380 C6.483,18.413 6.441,18.430 6.425,18.430 C6.407,18.430 6.365,18.447 6.298,18.479 C6.399,18.648 6.416,18.773 6.348,18.857 C6.280,18.941 6.213,19.016 6.145,19.083 C5.908,19.385 5.789,19.686 5.789,19.987 L5.789,21.045 L5.789,21.448 C5.789,21.616 5.797,21.790 5.815,21.975 C5.831,22.160 5.840,22.336 5.840,22.503 C5.840,22.771 5.848,23.057 5.866,23.358 C5.882,23.661 5.924,23.946 5.993,24.214 C5.993,24.348 5.984,24.474 5.967,24.592 C5.950,24.708 5.942,24.833 5.942,24.967 C5.975,25.204 5.967,25.430 5.916,25.646 C5.866,25.866 5.857,26.091 5.891,26.325 C5.924,26.426 5.942,26.578 5.942,26.778 L5.942,27.984 L5.942,28.036 C6.043,28.205 6.094,28.355 6.094,28.488 C6.094,28.624 6.077,28.774 6.043,28.941 C6.111,29.177 6.111,29.385 6.043,29.570 C5.975,29.755 5.924,29.947 5.891,30.148 C5.857,30.317 5.831,30.458 5.815,30.577 C5.797,30.694 5.755,30.836 5.688,31.004 C5.654,31.070 5.611,31.139 5.561,31.205 C5.510,31.272 5.467,31.355 5.434,31.456 C5.365,31.624 5.264,31.741 5.129,31.807 C4.993,31.875 4.857,31.959 4.722,32.059 C4.519,32.160 4.383,32.344 4.315,32.612 L4.315,32.663 C4.247,32.763 4.205,32.873 4.188,32.990 C4.171,33.107 4.129,33.216 4.061,33.316 C3.993,33.284 3.934,33.267 3.883,33.267 C3.833,33.267 3.773,33.249 3.705,33.216 C3.637,33.284 3.595,33.342 3.578,33.393 C3.561,33.442 3.519,33.501 3.451,33.568 C3.451,33.602 3.443,33.635 3.426,33.669 C3.409,33.703 3.401,33.736 3.401,33.769 C3.299,33.937 3.163,34.005 2.994,33.970 C2.960,33.937 2.909,33.920 2.842,33.920 C2.401,34.087 1.960,34.021 1.520,33.719 C1.384,33.619 1.266,33.518 1.164,33.417 C1.063,33.316 0.978,33.183 0.910,33.014 C0.842,32.746 0.766,32.512 0.681,32.311 C0.597,32.110 0.520,31.891 0.453,31.656 C0.351,31.355 0.292,31.053 0.275,30.751 C0.257,30.450 0.232,30.148 0.199,29.846 C0.199,29.780 0.207,29.704 0.224,29.620 C0.241,29.536 0.249,29.462 0.249,29.393 C0.249,29.059 0.257,28.732 0.275,28.413 C0.292,28.095 0.300,27.767 0.300,27.432 C0.300,27.165 0.283,26.904 0.249,26.653 C0.215,26.402 0.181,26.143 0.148,25.873 C0.148,25.638 0.139,25.421 0.122,25.219 C0.105,25.019 0.080,24.801 0.046,24.564 C0.012,24.398 -0.005,24.222 -0.005,24.038 C-0.005,23.853 -0.005,23.678 -0.005,23.510 L-0.005,22.050 C0.029,21.581 0.054,21.120 0.072,20.667 C0.088,20.215 0.114,19.755 0.148,19.284 C0.181,18.849 0.215,18.430 0.249,18.027 C0.283,17.624 0.317,17.206 0.351,16.770 C0.351,16.670 0.359,16.577 0.376,16.493 C0.393,16.410 0.402,16.317 0.402,16.217 C0.435,15.882 0.453,15.556 0.453,15.236 C0.453,14.918 0.486,14.574 0.554,14.204 C0.622,13.770 0.681,13.343 0.732,12.923 C0.783,12.504 0.842,12.094 0.910,11.691 C0.978,11.256 1.063,10.836 1.164,10.434 C1.266,10.031 1.368,9.612 1.469,9.175 C1.537,8.908 1.588,8.647 1.622,8.396 C1.655,8.144 1.689,7.884 1.723,7.616 C1.791,7.180 1.850,6.760 1.901,6.357 C1.952,5.956 2.011,5.537 2.079,5.101 C2.147,4.901 2.130,4.750 2.028,4.649 C1.927,4.482 1.901,4.322 1.952,4.171 C2.003,4.020 2.079,3.861 2.181,3.693 C2.282,3.761 2.375,3.810 2.460,3.845 C2.544,3.877 2.638,3.929 2.740,3.995 C2.807,3.861 2.858,3.743 2.892,3.643 L2.943,3.693 C3.011,3.726 3.087,3.743 3.172,3.743 C3.256,3.743 3.332,3.761 3.401,3.794 C3.468,3.794 3.536,3.845 3.604,3.945 C3.773,4.114 3.926,4.196 4.061,4.196 C4.163,4.196 4.247,4.230 4.315,4.297 C4.485,4.364 4.628,4.440 4.747,4.524 C4.866,4.607 4.993,4.682 5.129,4.750 C5.264,4.783 5.332,4.884 5.332,5.052 C5.298,5.119 5.213,5.151 5.078,5.151 C4.976,5.186 4.908,5.252 4.875,5.354 C4.840,5.453 4.857,5.555 4.925,5.654 C4.993,5.822 4.976,5.956 4.875,6.057 C4.806,6.192 4.773,6.276 4.773,6.309 C4.773,6.643 4.773,6.971 4.773,7.291 C4.773,7.607 4.790,7.918 4.824,8.221 C4.824,8.319 4.832,8.420 4.849,8.522 C4.866,8.623 4.875,8.722 4.875,8.822 C4.908,8.924 4.917,9.033 4.900,9.149 C4.882,9.267 4.891,9.376 4.925,9.477 C4.925,9.645 4.933,9.829 4.951,10.031 C4.967,10.231 4.993,10.434 5.027,10.633 C5.027,10.703 5.044,10.776 5.078,10.861 C5.111,10.945 5.145,11.020 5.179,11.086 C5.213,11.222 5.247,11.347 5.281,11.463 C5.314,11.582 5.349,11.691 5.383,11.791 L5.383,11.991 C5.314,12.261 5.281,12.461 5.281,12.595 C5.281,12.696 5.298,12.780 5.332,12.846 C5.434,13.148 5.467,13.434 5.434,13.701 C5.399,13.735 5.383,13.786 5.383,13.853 C5.416,13.953 5.434,14.121 5.434,14.356 C5.535,14.356 5.603,14.339 5.637,14.306 C6.314,14.204 6.958,14.003 7.568,13.701 C7.636,13.636 7.721,13.601 7.822,13.601 C7.924,13.601 8.008,13.584 8.076,13.551 L8.686,13.400 L9.296,13.400 L9.652,13.400 C9.821,13.434 9.923,13.351 9.957,13.148 L9.957,12.948 C9.957,12.780 9.957,12.620 9.957,12.470 C9.957,12.318 9.974,12.159 10.008,11.991 C10.075,11.757 10.109,11.540 10.109,11.337 C10.109,11.137 10.126,10.918 10.160,10.684 C10.194,10.349 10.219,10.023 10.236,9.703 C10.253,9.384 10.295,9.058 10.363,8.722 C10.397,8.455 10.414,8.195 10.414,7.943 C10.414,7.693 10.431,7.433 10.465,7.163 C10.533,6.795 10.583,6.435 10.618,6.082 C10.651,5.730 10.702,5.370 10.770,5.001 C10.803,4.901 10.812,4.792 10.795,4.674 C10.778,4.556 10.770,4.448 10.770,4.347 C10.770,4.315 10.753,4.279 10.719,4.247 C10.685,4.214 10.651,4.163 10.618,4.095 C10.516,4.029 10.380,3.911 10.211,3.743 C10.143,3.711 10.075,3.627 10.008,3.492 C10.075,3.425 10.117,3.367 10.135,3.315 C10.151,3.266 10.194,3.224 10.262,3.190 C10.295,3.090 10.363,3.038 10.465,3.038 C10.600,3.007 10.719,2.974 10.821,2.938 C10.923,2.905 11.041,2.905 11.177,2.938 C11.244,2.938 11.329,2.931 11.431,2.914 C11.532,2.896 11.651,2.922 11.787,2.990 C12.057,3.158 12.328,3.140 12.600,2.938 L12.651,2.938 C12.752,3.107 12.921,3.158 13.159,3.090 C13.328,3.090 13.480,3.158 13.616,3.291 C13.785,3.392 13.929,3.551 14.048,3.768 C14.167,3.987 14.260,4.180 14.328,4.347 C14.429,4.448 14.446,4.565 14.379,4.698 C14.379,4.734 14.370,4.767 14.353,4.800 C14.336,4.833 14.328,4.867 14.328,4.901 C14.395,5.036 14.437,5.169 14.455,5.303 C14.472,5.437 14.497,5.589 14.531,5.755 L14.684,6.660 C14.751,6.929 14.793,7.206 14.811,7.489 C14.827,7.776 14.853,8.069 14.887,8.372 L14.887,8.472 C14.887,8.807 14.887,9.133 14.887,9.452 C14.887,9.771 14.904,10.097 14.938,10.434 C14.938,10.703 14.954,10.953 14.989,11.186 C15.022,11.422 15.056,11.657 15.090,11.891 L15.090,12.094 C15.090,12.261 15.098,12.419 15.116,12.569 C15.132,12.721 15.141,12.880 15.141,13.048 C15.141,13.115 15.132,13.173 15.116,13.225 C15.098,13.274 15.090,13.334 15.090,13.400 ZM13.362,28.941 C13.531,28.974 13.480,28.999 13.210,29.016 C12.938,29.035 12.836,28.958 12.905,28.790 C12.911,28.779 12.918,28.780 12.924,28.770 C12.965,28.781 13.008,28.802 13.057,28.841 C13.192,28.908 13.294,28.941 13.362,28.941 Z" class="cls-1"/>
</svg>
