<svg xmlns="http://www.w3.org/2000/svg" xmlns:xlink="http://www.w3.org/1999/xlink" preserveAspectRatio="xMidYMid" width="117" height="31" viewBox="0 0 117 31">
  <defs>
    <style>
      .cls-1 {
        fill: #141414;
        fill-rule: evenodd;
      }
    </style>
  </defs>
  <path d="M116.733,17.881 C116.463,18.302 116.114,18.794 115.687,19.358 C115.260,19.924 114.787,20.506 114.270,21.104 C113.752,21.702 113.207,22.290 112.633,22.865 C112.059,23.441 111.486,23.952 110.912,24.395 C110.338,24.837 109.787,25.198 109.259,25.475 C108.730,25.752 108.251,25.891 107.824,25.891 C107.509,25.891 107.211,25.800 106.930,25.625 C106.648,25.445 106.395,25.214 106.171,24.926 C105.945,24.639 105.771,24.316 105.648,23.963 C105.524,23.607 105.473,23.253 105.496,22.898 C105.518,22.744 105.552,22.478 105.597,22.100 C104.652,23.143 103.701,23.968 102.745,24.576 C101.789,25.187 100.873,25.492 99.995,25.492 C99.680,25.492 99.342,25.412 98.983,25.258 C98.623,25.103 98.302,24.848 98.021,24.494 C97.739,24.140 97.509,23.675 97.329,23.099 C97.216,22.734 97.152,22.315 97.128,21.855 C96.881,22.152 96.649,22.448 96.384,22.748 C95.866,23.335 95.327,23.867 94.764,24.345 C94.202,24.821 93.645,25.209 93.094,25.507 C92.542,25.806 92.019,25.955 91.525,25.955 C91.007,25.955 90.563,25.862 90.192,25.673 C89.821,25.486 89.522,25.236 89.298,24.926 C89.072,24.616 88.926,24.256 88.859,23.845 C88.791,23.436 88.814,22.999 88.926,22.533 C88.994,22.223 89.106,21.808 89.264,21.287 C89.421,20.766 89.584,20.202 89.753,19.591 C89.922,18.983 90.079,18.374 90.226,17.764 C90.372,17.155 90.467,16.601 90.512,16.102 C90.557,15.604 90.535,15.193 90.445,14.872 C90.355,14.551 90.163,14.390 89.871,14.390 C89.511,14.390 89.140,14.507 88.758,14.739 C88.375,14.972 87.987,15.288 87.593,15.686 C87.199,16.085 86.806,16.544 86.412,17.065 C86.018,17.587 85.630,18.125 85.248,18.678 C85.046,19.431 84.877,20.091 84.742,20.655 C84.607,21.220 84.489,21.731 84.387,22.184 C84.286,22.637 84.190,23.037 84.101,23.380 C84.010,23.724 83.932,24.050 83.864,24.361 C83.797,24.582 83.594,24.799 83.257,25.008 C82.919,25.218 82.559,25.391 82.177,25.524 C81.794,25.657 81.463,25.723 81.182,25.723 C80.900,25.723 80.782,25.625 80.827,25.424 C80.850,25.291 80.923,24.992 81.047,24.528 C81.170,24.062 81.317,23.514 81.485,22.882 C81.654,22.250 81.828,21.581 82.008,20.872 C82.012,20.859 82.014,20.847 82.018,20.834 C81.686,21.262 81.359,21.691 81.013,22.118 C80.484,22.770 79.967,23.370 79.460,23.912 C78.954,24.455 78.533,24.837 78.195,25.059 C77.970,25.192 77.711,25.302 77.419,25.391 C77.126,25.480 76.828,25.534 76.525,25.556 C76.221,25.579 75.934,25.562 75.664,25.507 C75.394,25.453 75.158,25.358 74.955,25.224 C74.753,25.071 74.584,24.848 74.449,24.560 C74.336,24.316 74.230,23.996 74.129,23.596 C74.027,23.197 73.988,22.700 74.010,22.100 C73.471,22.988 72.874,23.669 72.222,24.144 C71.569,24.623 70.951,24.970 70.366,25.192 C69.691,25.435 69.016,25.579 68.341,25.625 C68.026,25.625 67.688,25.518 67.329,25.308 C66.969,25.097 66.665,24.766 66.417,24.310 C66.170,23.857 66.012,23.271 65.945,22.549 C65.878,21.828 65.968,20.970 66.215,19.975 C66.530,18.621 67.030,17.393 67.717,16.285 C68.403,15.177 69.151,14.230 69.961,13.444 C70.771,12.657 71.569,12.064 72.357,11.665 C73.144,11.266 73.796,11.089 74.314,11.133 C74.922,11.244 75.416,11.423 75.799,11.665 C76.114,11.886 76.322,12.214 76.423,12.646 C76.525,13.077 76.339,13.649 75.866,14.358 C76.181,14.291 76.445,14.246 76.659,14.224 C76.873,14.202 77.036,14.190 77.149,14.190 C77.284,14.190 77.373,14.202 77.419,14.224 C77.441,14.269 77.453,14.362 77.453,14.507 C77.453,14.651 77.419,14.912 77.351,15.288 C77.284,15.665 77.183,16.174 77.048,16.816 C76.913,17.459 76.732,18.290 76.508,19.308 C76.462,19.509 76.423,19.692 76.390,19.857 C76.356,20.023 76.322,20.190 76.288,20.357 C76.255,20.523 76.215,20.716 76.170,20.938 C76.125,21.160 76.069,21.437 76.001,21.769 C75.979,21.967 75.973,22.184 75.985,22.417 C75.996,22.649 76.035,22.865 76.103,23.064 C76.170,23.265 76.277,23.425 76.423,23.547 C76.569,23.669 76.778,23.729 77.048,23.729 C77.272,23.729 77.565,23.591 77.925,23.313 C78.285,23.037 78.667,22.683 79.072,22.250 C79.477,21.818 79.899,21.343 80.338,20.821 C80.777,20.301 81.187,19.797 81.570,19.308 C81.952,18.823 82.295,18.390 82.599,18.013 C82.647,17.953 82.690,17.900 82.734,17.845 C82.783,17.619 82.833,17.392 82.886,17.149 C82.998,16.617 83.139,15.996 83.308,15.288 C83.476,14.579 83.673,13.803 83.898,12.961 C84.055,12.828 84.219,12.724 84.387,12.646 C84.556,12.568 84.730,12.508 84.910,12.463 C85.090,12.397 85.282,12.352 85.484,12.330 C85.664,12.330 85.844,12.341 86.024,12.363 C86.181,12.386 86.345,12.424 86.514,12.479 C86.682,12.536 86.834,12.617 86.969,12.729 C86.901,12.884 86.822,13.100 86.733,13.377 C86.643,13.653 86.552,13.947 86.463,14.257 C86.373,14.612 86.260,14.978 86.125,15.354 C86.417,14.955 86.750,14.551 87.121,14.141 C87.492,13.731 87.897,13.361 88.336,13.027 C88.774,12.695 89.241,12.424 89.736,12.214 C90.231,12.003 90.737,11.898 91.255,11.898 C91.682,11.898 92.065,12.020 92.402,12.263 C92.740,12.508 93.004,12.844 93.195,13.277 C93.386,13.709 93.499,14.224 93.533,14.823 C93.566,15.421 93.482,16.075 93.280,16.783 L92.908,18.246 C92.795,18.712 92.655,19.260 92.487,19.891 C92.318,20.523 92.110,21.216 91.862,21.967 C91.727,22.457 91.677,22.877 91.710,23.231 C91.744,23.586 91.963,23.762 92.368,23.762 C92.773,23.762 93.285,23.520 93.904,23.030 C94.522,22.545 95.147,21.956 95.777,21.269 C96.324,20.673 96.835,20.058 97.331,19.435 C97.464,18.719 97.641,18.019 97.903,17.348 C98.353,16.197 98.921,15.193 99.607,14.340 C100.293,13.488 101.069,12.812 101.936,12.313 C102.801,11.815 103.673,11.566 104.551,11.566 C104.933,11.566 105.282,11.661 105.597,11.847 C105.912,12.036 106.182,12.279 106.407,12.579 C106.632,12.878 106.817,13.205 106.964,13.559 C107.110,13.913 107.217,14.246 107.284,14.556 C107.441,13.913 107.588,13.283 107.723,12.662 C107.858,12.042 107.993,11.454 108.128,10.900 C108.353,10.081 108.589,9.195 108.837,8.242 C109.061,7.423 109.320,6.480 109.613,5.417 C109.905,4.354 110.231,3.236 110.592,2.059 C110.816,1.883 111.030,1.751 111.233,1.660 C111.435,1.574 111.626,1.507 111.806,1.463 C112.009,1.395 112.200,1.363 112.380,1.363 C112.605,1.363 112.807,1.389 112.987,1.445 C113.167,1.501 113.319,1.644 113.443,1.878 C113.567,2.110 113.651,2.459 113.696,2.924 C113.741,3.389 113.741,4.021 113.696,4.818 C113.651,5.793 113.477,6.858 113.173,8.009 C112.869,9.161 112.470,10.352 111.975,11.582 C111.480,12.812 110.912,14.042 110.271,15.271 C109.630,16.501 108.938,17.670 108.196,18.777 C108.083,19.464 107.976,20.118 107.875,20.738 C107.774,21.358 107.711,21.858 107.689,22.233 C107.667,22.787 107.768,23.186 107.993,23.430 C108.218,23.675 108.465,23.797 108.735,23.797 C109.050,23.797 109.438,23.640 109.900,23.330 C110.361,23.020 110.850,22.632 111.368,22.168 C111.885,21.702 112.402,21.193 112.920,20.639 C113.437,20.085 113.916,19.559 114.354,19.061 C114.793,18.561 115.164,18.125 115.468,17.747 C115.771,17.369 115.979,17.127 116.092,17.016 C116.227,16.884 116.367,16.806 116.514,16.783 C116.660,16.762 116.778,16.783 116.868,16.850 C116.958,16.916 117.003,17.038 117.003,17.215 C117.003,17.393 116.913,17.614 116.733,17.881 ZM74.888,14.789 C74.775,14.811 74.652,14.844 74.517,14.889 C74.404,14.934 74.258,14.967 74.078,14.988 C73.898,15.010 73.718,15.044 73.538,15.089 C73.718,14.734 73.825,14.440 73.859,14.208 C73.892,13.975 73.898,13.792 73.875,13.659 C73.853,13.504 73.808,13.382 73.740,13.294 C73.493,13.094 73.060,13.255 72.441,13.775 C71.822,14.297 71.108,15.254 70.298,16.651 C69.961,17.226 69.691,17.842 69.488,18.494 C69.286,19.149 69.145,19.763 69.067,20.339 C68.987,20.916 68.971,21.420 69.016,21.852 C69.061,22.284 69.151,22.567 69.286,22.700 C69.533,22.942 69.814,23.058 70.130,23.048 C70.444,23.037 70.765,22.948 71.091,22.782 C71.417,22.616 71.744,22.400 72.070,22.134 C72.396,21.869 72.689,21.592 72.947,21.303 C73.206,21.015 73.420,20.750 73.589,20.506 C73.757,20.262 73.853,20.085 73.875,19.975 C73.988,19.531 74.123,19.010 74.280,18.412 C74.438,17.814 74.573,17.237 74.685,16.683 C74.798,16.129 74.882,15.670 74.938,15.304 C74.994,14.939 74.978,14.767 74.888,14.789 ZM106.626,16.717 C106.592,16.739 106.553,16.762 106.508,16.783 C106.260,16.895 106.092,16.889 106.002,16.767 C105.912,16.645 105.867,16.452 105.867,16.185 C105.867,16.053 105.855,15.814 105.833,15.470 C105.811,15.127 105.749,14.773 105.648,14.407 C105.546,14.042 105.395,13.720 105.192,13.444 C104.990,13.167 104.708,13.027 104.348,13.027 C103.831,13.027 103.302,13.288 102.762,13.809 C102.222,14.328 101.716,14.961 101.244,15.703 C100.771,16.446 100.377,17.237 100.063,18.078 C99.747,18.923 99.568,19.675 99.523,20.339 C99.477,21.403 99.612,22.168 99.928,22.632 C100.242,23.099 100.670,23.330 101.210,23.330 C101.615,23.330 102.059,23.175 102.543,22.865 C103.026,22.555 103.499,22.179 103.960,21.736 C104.421,21.293 104.849,20.838 105.243,20.373 C105.636,19.907 105.957,19.520 106.205,19.210 C106.294,18.789 106.378,18.368 106.458,17.947 C106.536,17.525 106.632,17.093 106.744,16.651 C106.699,16.672 106.660,16.695 106.626,16.717 ZM66.249,5.117 C65.979,6.070 65.608,7.443 65.135,9.238 C64.730,10.767 64.184,12.851 63.498,15.487 C62.812,18.125 61.951,21.448 60.917,25.459 C60.804,25.568 60.669,25.645 60.512,25.690 C60.354,25.735 60.208,25.758 60.073,25.758 C59.916,25.758 59.747,25.746 59.567,25.723 C59.409,25.679 59.252,25.613 59.095,25.524 C58.960,25.435 58.825,25.319 58.690,25.176 C58.555,25.031 58.453,24.837 58.386,24.594 C58.705,23.270 59.002,22.040 59.281,20.885 C58.710,21.604 58.125,22.300 57.508,22.948 C56.699,23.803 55.911,24.506 55.146,25.059 C54.381,25.613 53.740,25.891 53.223,25.891 C52.480,25.891 51.861,25.746 51.367,25.459 C50.871,25.169 50.483,24.815 50.202,24.395 C49.921,23.974 49.724,23.514 49.612,23.014 C49.499,22.515 49.465,22.057 49.510,21.635 C49.531,21.302 49.604,20.710 49.725,19.877 C49.500,20.191 49.259,20.518 48.987,20.872 C48.526,21.470 48.014,22.083 47.452,22.716 C46.889,23.346 46.299,23.924 45.680,24.444 C45.061,24.964 44.443,25.391 43.824,25.723 C43.205,26.055 42.615,26.222 42.053,26.222 C41.467,26.222 40.984,26.111 40.602,25.891 C40.219,25.668 39.910,25.396 39.674,25.076 C39.437,24.755 39.269,24.399 39.167,24.012 C39.066,23.624 39.027,23.265 39.049,22.931 C39.071,22.666 39.145,22.383 39.269,22.083 C39.392,21.785 39.538,21.475 39.707,21.154 C39.876,20.832 40.056,20.512 40.247,20.190 C40.438,19.869 40.613,19.554 40.770,19.243 C41.152,18.599 41.462,18.051 41.698,17.597 C41.934,17.144 42.053,16.762 42.053,16.452 C42.053,16.252 42.007,16.075 41.918,15.920 C41.827,15.765 41.681,15.686 41.479,15.686 C41.344,15.686 41.248,15.692 41.192,15.703 C41.136,15.713 41.079,15.719 41.023,15.719 C40.967,15.719 40.888,15.725 40.787,15.737 C40.686,15.748 40.534,15.753 40.332,15.753 C40.039,15.753 39.792,15.707 39.589,15.620 C39.387,15.532 39.195,15.465 39.015,15.421 C38.925,15.575 38.723,15.908 38.408,16.418 C38.093,16.927 37.727,17.525 37.311,18.212 C36.895,18.899 36.456,19.620 35.995,20.373 C35.534,21.126 35.101,21.828 34.696,22.483 C34.291,23.137 33.948,23.692 33.667,24.144 C33.386,24.598 33.211,24.870 33.144,24.959 C32.986,25.203 32.812,25.363 32.621,25.441 C32.430,25.518 32.261,25.528 32.114,25.475 C31.968,25.418 31.873,25.302 31.827,25.124 C31.783,24.948 31.827,24.726 31.962,24.460 C32.030,24.327 32.182,24.028 32.418,23.563 C32.654,23.099 32.936,22.539 33.262,21.885 C33.588,21.231 33.942,20.523 34.325,19.757 C34.707,18.993 35.072,18.268 35.421,17.581 C35.545,17.337 35.662,17.113 35.778,16.887 C35.533,17.079 35.278,17.276 35.000,17.482 C34.370,17.947 33.683,18.400 32.941,18.844 C32.199,19.288 31.490,19.620 30.815,19.840 C30.590,20.683 30.286,21.470 29.904,22.200 C29.521,22.931 29.066,23.563 28.537,24.095 C28.008,24.628 27.412,25.043 26.749,25.343 C26.085,25.639 25.359,25.790 24.572,25.790 C23.649,25.790 22.924,25.597 22.395,25.209 C21.867,24.821 21.473,24.340 21.214,23.762 C20.955,23.186 20.798,22.555 20.742,21.869 C20.686,21.182 20.657,20.538 20.657,19.941 C20.657,19.520 20.708,19.054 20.809,18.545 C20.910,18.036 21.051,17.514 21.231,16.983 C21.411,16.452 21.641,15.920 21.923,15.387 C22.204,14.855 22.536,14.368 22.918,13.925 C23.053,13.549 23.261,13.217 23.543,12.929 C23.824,12.641 24.150,12.401 24.521,12.214 C24.893,12.025 25.292,11.880 25.719,11.781 C26.147,11.681 26.563,11.632 26.968,11.632 C27.035,11.632 27.097,11.643 27.154,11.665 C27.210,11.687 27.272,11.709 27.339,11.731 C27.631,11.753 27.997,11.864 28.436,12.064 C28.875,12.263 29.302,12.562 29.718,12.961 C30.134,13.361 30.489,13.865 30.781,14.473 C31.073,15.083 31.220,15.819 31.220,16.683 C31.220,16.862 31.208,17.078 31.186,17.332 C31.164,17.587 31.141,17.802 31.119,17.980 C31.636,17.780 32.176,17.537 32.739,17.247 C33.301,16.960 33.846,16.655 34.375,16.335 C34.904,16.013 35.393,15.686 35.843,15.354 C36.291,15.022 36.650,14.726 36.919,14.460 C36.735,14.293 36.593,14.158 36.518,14.074 C36.428,13.975 36.361,13.758 36.316,13.426 C36.270,13.138 36.338,12.762 36.518,12.297 C36.698,11.832 36.934,11.383 37.227,10.950 C37.519,10.518 37.845,10.147 38.206,9.837 C38.565,9.527 38.914,9.372 39.252,9.372 C39.881,9.372 40.326,9.571 40.585,9.970 C40.843,10.369 40.995,10.779 41.040,11.200 C41.085,11.488 41.062,11.853 40.973,12.297 C40.883,12.740 40.714,13.138 40.467,13.493 C40.534,13.537 40.624,13.588 40.737,13.642 C40.849,13.698 41.029,13.726 41.276,13.726 C41.636,13.726 41.889,13.704 42.036,13.659 C42.182,13.615 42.412,13.593 42.728,13.593 C43.110,13.593 43.425,13.687 43.672,13.875 C43.920,14.064 44.122,14.297 44.280,14.573 C44.437,14.851 44.555,15.149 44.634,15.470 C44.713,15.792 44.763,16.085 44.786,16.351 C44.854,16.905 44.707,17.482 44.347,18.078 C43.987,18.678 43.549,19.330 43.031,20.040 C42.716,20.484 42.401,20.983 42.086,21.535 C41.771,22.089 41.636,22.589 41.681,23.030 C41.726,23.319 41.805,23.553 41.918,23.729 C42.030,23.907 42.345,23.996 42.863,23.996 C43.245,23.996 43.667,23.857 44.128,23.579 C44.589,23.303 45.061,22.948 45.545,22.515 C46.029,22.083 46.507,21.609 46.980,21.086 C47.452,20.566 47.891,20.057 48.296,19.559 C48.701,19.061 49.043,18.611 49.325,18.212 C49.606,17.814 49.814,17.525 49.949,17.348 C50.015,17.245 50.095,17.167 50.183,17.101 C50.217,16.914 50.250,16.729 50.287,16.534 C50.511,15.327 50.764,14.031 51.046,12.646 C51.327,11.261 51.625,9.925 51.940,8.641 C51.558,8.686 51.175,8.729 50.793,8.774 C50.410,8.818 50.062,8.840 49.747,8.840 C49.026,8.840 48.346,8.756 47.705,8.591 C47.064,8.425 46.586,8.265 46.271,8.110 C46.091,8.020 46.013,7.892 46.035,7.726 C46.057,7.562 46.125,7.395 46.237,7.228 C46.350,7.062 46.490,6.918 46.659,6.795 C46.828,6.674 46.980,6.614 47.115,6.614 C47.542,6.657 48.004,6.697 48.498,6.731 C48.993,6.763 49.533,6.768 50.118,6.746 C50.545,6.725 50.956,6.691 51.350,6.647 C51.743,6.603 52.131,6.546 52.514,6.480 C52.806,5.417 53.093,4.492 53.375,3.705 C53.656,2.919 53.909,2.371 54.134,2.059 C54.201,1.948 54.353,1.857 54.589,1.778 C54.826,1.701 55.079,1.644 55.349,1.611 C55.619,1.579 55.877,1.579 56.125,1.611 C56.372,1.644 56.552,1.728 56.665,1.862 C56.777,2.038 56.822,2.492 56.800,3.224 C56.777,3.955 56.653,4.885 56.429,6.016 C57.374,6.016 58.211,6.064 58.943,6.165 C59.674,6.264 60.298,6.375 60.816,6.497 C61.333,6.618 61.749,6.741 62.064,6.863 C62.282,6.947 62.448,7.006 62.591,7.053 C62.713,6.525 62.807,6.112 62.874,5.816 C62.942,5.394 62.998,4.985 63.043,4.586 C63.088,4.233 63.110,3.866 63.110,3.489 C63.110,3.113 63.077,2.769 63.009,2.459 C63.189,2.347 63.386,2.260 63.600,2.194 C63.813,2.127 64.021,2.071 64.224,2.027 C64.471,1.960 64.719,1.906 64.966,1.862 C65.214,1.816 65.439,1.794 65.641,1.794 C65.821,1.794 65.990,1.810 66.148,1.844 C66.305,1.878 66.406,1.948 66.451,2.059 C66.586,2.172 66.648,2.393 66.637,2.725 C66.625,3.057 66.597,3.401 66.552,3.755 C66.462,4.176 66.361,4.631 66.249,5.117 ZM23.425,18.013 C23.290,18.477 23.177,18.934 23.087,19.376 C22.997,19.819 22.952,20.240 22.952,20.639 C22.952,21.038 22.974,21.432 23.020,21.818 C23.065,22.206 23.155,22.549 23.290,22.849 C23.425,23.149 23.604,23.393 23.830,23.579 C24.054,23.767 24.347,23.861 24.707,23.861 C25.112,23.861 25.483,23.767 25.821,23.579 C26.158,23.393 26.462,23.149 26.732,22.849 C27.002,22.549 27.243,22.206 27.457,21.818 C27.671,21.432 27.857,21.027 28.014,20.606 C27.857,20.628 27.705,20.644 27.559,20.655 C27.412,20.667 27.249,20.671 27.069,20.671 C26.214,20.671 25.477,20.422 24.859,19.924 C24.240,19.425 23.762,18.789 23.425,18.013 ZM28.858,15.920 C28.812,15.476 28.728,15.073 28.605,14.707 C28.481,14.340 28.323,14.042 28.132,13.809 C27.941,13.576 27.710,13.460 27.440,13.460 C27.013,13.460 26.602,13.576 26.209,13.809 C25.815,14.042 25.449,14.368 25.112,14.789 C25.044,14.988 25.011,15.200 25.011,15.421 C25.011,15.775 25.033,16.147 25.078,16.534 C25.123,16.922 25.235,17.271 25.416,17.581 C25.595,17.891 25.882,18.152 26.276,18.362 C26.670,18.573 27.215,18.678 27.913,18.678 C28.025,18.678 28.138,18.672 28.250,18.662 C28.363,18.651 28.475,18.633 28.588,18.611 C28.655,18.324 28.717,18.062 28.773,17.831 C28.829,17.597 28.858,17.393 28.858,17.215 C28.903,16.795 28.903,16.363 28.858,15.920 ZM61.929,8.607 C61.704,8.585 61.451,8.541 61.170,8.474 C60.888,8.408 60.551,8.352 60.158,8.308 C59.764,8.265 59.297,8.221 58.757,8.174 C58.217,8.131 57.587,8.110 56.867,8.110 C56.732,8.110 56.580,8.115 56.412,8.125 C56.243,8.137 56.068,8.142 55.889,8.142 C55.798,8.498 55.714,8.845 55.636,9.188 C55.556,9.533 55.450,9.893 55.315,10.269 C55.022,11.156 54.685,12.120 54.303,13.161 C53.965,14.070 53.560,15.111 53.088,16.285 C52.615,17.459 52.086,18.712 51.502,20.040 C51.367,20.993 51.384,21.720 51.552,22.217 C51.721,22.716 51.929,23.076 52.177,23.297 C52.469,23.542 52.829,23.675 53.256,23.696 C53.594,23.740 54.004,23.624 54.488,23.346 C54.972,23.070 55.472,22.700 55.990,22.233 C56.507,21.769 57.030,21.259 57.559,20.705 C58.087,20.151 58.577,19.608 59.027,19.077 C59.393,18.644 59.712,18.253 60.004,17.886 C60.286,16.717 60.539,15.661 60.765,14.723 C61.361,12.242 61.816,10.348 62.132,9.039 C62.166,8.890 62.199,8.750 62.231,8.610 C62.135,8.628 62.035,8.629 61.929,8.607 ZM20.117,11.598 C19.443,12.950 18.509,14.197 17.317,15.338 C16.124,16.479 14.673,17.448 12.963,18.246 C11.253,19.042 9.296,19.498 7.091,19.608 C6.911,20.450 6.731,21.315 6.551,22.200 C6.371,23.088 6.180,23.957 5.978,24.808 C5.775,25.662 5.567,26.460 5.353,27.203 C5.139,27.945 4.920,28.582 4.695,29.113 C4.470,29.689 4.178,30.149 3.818,30.492 C3.458,30.836 2.884,31.006 2.097,31.006 C1.692,31.006 1.316,30.909 0.966,30.708 C0.618,30.510 0.297,30.232 0.005,29.878 C0.095,29.812 0.236,29.701 0.426,29.545 C0.618,29.390 0.843,29.102 1.101,28.681 C1.360,28.260 1.647,27.651 1.962,26.854 C2.277,26.055 2.603,24.970 2.941,23.596 C3.120,22.865 3.357,21.935 3.649,20.805 C3.941,19.675 4.262,18.467 4.611,17.182 C4.960,15.897 5.314,14.573 5.674,13.210 C6.034,11.847 6.383,10.552 6.720,9.322 C7.058,8.093 7.361,6.979 7.631,5.982 C7.901,4.985 8.115,4.209 8.273,3.656 C7.845,3.923 7.429,4.221 7.024,4.553 C6.664,4.840 6.281,5.167 5.876,5.533 C5.472,5.900 5.078,6.281 4.695,6.679 C4.403,6.437 4.178,6.171 4.021,5.882 C3.930,5.750 3.852,5.606 3.784,5.450 C3.649,5.117 3.582,4.774 3.582,4.420 C3.582,4.066 3.863,3.700 4.425,3.323 C4.718,3.124 5.162,2.837 5.758,2.459 C6.354,2.082 7.091,1.712 7.969,1.346 C8.846,0.979 9.870,0.664 11.040,0.398 C12.209,0.132 13.503,-0.001 14.921,-0.001 C16.338,-0.001 17.479,0.276 18.346,0.830 C19.212,1.384 19.875,2.059 20.337,2.858 C20.798,3.656 21.096,4.498 21.231,5.384 C21.366,6.269 21.400,7.045 21.332,7.710 C21.197,8.951 20.792,10.247 20.117,11.598 ZM17.806,4.734 C17.570,3.993 17.226,3.395 16.777,2.941 C16.326,2.487 15.809,2.165 15.224,1.978 C14.639,1.788 14.054,1.695 13.470,1.695 C12.907,1.695 12.356,1.773 11.816,1.926 C11.276,2.082 10.736,2.282 10.196,2.526 C10.264,2.548 10.342,2.604 10.432,2.693 C10.567,2.825 10.668,3.013 10.736,3.257 C10.196,5.406 9.752,7.200 9.403,8.641 C9.054,10.081 8.779,11.256 8.576,12.163 C8.328,13.227 8.138,14.080 8.003,14.723 C7.935,15.077 7.851,15.537 7.749,16.102 C7.648,16.667 7.530,17.305 7.395,18.013 C8.003,17.924 8.677,17.764 9.420,17.531 C10.162,17.299 10.905,16.983 11.647,16.584 C12.389,16.185 13.115,15.703 13.824,15.138 C14.532,14.573 15.179,13.920 15.764,13.177 C16.349,12.435 16.838,11.592 17.232,10.652 C17.626,9.710 17.879,8.663 17.991,7.510 C18.104,6.403 18.042,5.479 17.806,4.734 Z" class="cls-1"/>
</svg>
