<svg xmlns="http://www.w3.org/2000/svg" xmlns:xlink="http://www.w3.org/1999/xlink" preserveAspectRatio="xMidYMid" width="14" height="17" viewBox="0 0 14 17">
  <defs>
    <style>
      .cls-1 {
        fill: #fff;
        fill-rule: evenodd;
      }
    </style>
  </defs>
  <path d="M5.740,11.245 C5.268,13.588 4.690,15.834 2.981,17.008 C2.453,13.467 3.756,10.807 4.361,7.985 C3.330,6.343 4.485,3.040 6.660,3.854 C9.336,4.855 4.342,9.956 7.695,10.593 C11.195,11.258 12.624,4.851 10.454,2.767 C7.318,-0.242 1.324,2.698 2.061,7.006 C2.241,8.060 3.391,8.379 2.521,9.832 C0.514,9.412 -0.085,7.916 -0.008,5.920 C0.116,2.653 3.096,0.365 6.085,0.049 C9.865,-0.350 13.413,1.362 13.903,4.723 C14.454,8.519 12.197,12.628 8.154,12.332 C7.059,12.252 6.599,11.740 5.740,11.245 Z" class="cls-1"/>
</svg>
