<svg xmlns="http://www.w3.org/2000/svg" xmlns:xlink="http://www.w3.org/1999/xlink" preserveAspectRatio="xMidYMid" width="120" height="35" viewBox="0 0 120 35">
  <defs>
    <style>
      .cls-1 {
        fill: #141414;
        fill-rule: evenodd;
      }
    </style>
  </defs>
  <path d="M113.954,22.765 C112.194,22.647 111.648,20.785 111.571,18.861 C111.450,15.855 112.297,14.663 112.272,13.021 C112.264,12.438 111.971,11.992 110.956,11.891 C109.404,11.741 107.863,14.551 107.539,16.843 C107.542,16.910 107.545,16.978 107.549,17.045 C107.626,18.601 108.265,19.658 108.301,20.494 C108.333,21.246 107.853,21.807 106.000,22.528 C105.779,22.613 105.556,22.664 105.360,22.655 C104.431,22.618 104.080,21.395 103.985,19.538 C103.969,19.233 103.954,18.938 103.939,18.651 C103.321,19.247 102.430,19.530 101.448,19.473 C100.798,19.438 100.200,19.342 99.626,19.186 C98.393,20.786 96.581,22.045 94.345,21.990 C91.228,21.923 89.323,20.118 88.395,17.974 C87.115,19.879 84.706,21.622 82.614,21.669 C81.138,21.675 80.259,19.704 79.774,17.242 C78.905,19.271 76.690,21.725 72.153,21.904 C70.226,21.972 68.321,20.981 67.332,18.989 C66.274,20.631 64.626,21.996 62.875,22.099 C60.385,22.246 58.000,20.937 56.832,18.157 C55.913,20.596 53.803,23.619 51.047,25.629 C50.267,29.946 49.219,34.431 45.079,34.616 C44.773,34.629 44.472,34.600 44.182,34.532 C43.891,34.463 43.610,34.355 43.342,34.215 C42.806,33.933 42.320,33.515 41.910,32.997 C41.088,31.960 40.567,30.523 40.536,28.978 C40.457,25.556 43.842,25.355 48.027,23.760 C48.159,22.911 48.252,22.053 48.340,21.254 C47.468,22.437 46.209,23.290 44.362,23.435 C42.277,23.606 40.634,22.326 39.846,20.282 C38.765,22.186 36.926,23.880 35.009,24.079 C33.183,24.253 32.559,22.096 32.342,19.900 C31.997,16.473 32.676,15.014 32.411,13.266 C32.314,12.653 31.952,12.254 30.940,12.371 C29.414,12.541 28.273,15.869 28.082,18.508 C28.090,18.583 28.098,18.656 28.106,18.731 C28.294,20.445 29.000,21.519 29.076,22.472 C29.143,23.326 28.669,24.085 26.777,25.221 C26.550,25.353 26.322,25.449 26.118,25.471 C25.156,25.579 24.760,24.287 24.589,22.257 C24.567,22.000 24.544,21.756 24.522,21.510 C23.480,23.584 21.474,25.540 19.377,25.794 C17.094,26.063 16.255,23.275 15.921,20.134 C15.583,16.412 15.792,10.726 17.875,10.438 C19.099,10.259 19.980,12.257 20.085,12.925 C20.475,15.501 19.549,19.161 19.709,20.896 C19.771,21.530 20.271,21.822 20.826,21.750 C21.752,21.603 23.338,18.904 24.207,17.815 C24.016,14.868 24.149,12.720 25.288,10.185 C25.556,9.576 25.887,9.308 26.263,9.261 C27.074,9.162 28.070,10.154 28.599,10.959 C29.236,10.074 30.219,9.363 31.751,9.193 C34.350,8.915 35.982,9.978 36.325,12.017 C36.800,14.785 35.949,18.057 36.069,19.365 C36.105,19.728 36.210,19.921 36.442,19.896 C37.212,19.786 38.424,17.889 39.301,16.648 C39.307,14.729 39.686,12.872 40.591,11.398 C41.651,9.703 43.453,8.113 45.852,7.942 C46.950,7.862 48.538,8.060 49.234,8.350 C49.345,7.374 49.818,7.105 50.310,7.074 C51.469,7.003 52.916,8.983 53.029,9.661 C53.294,11.137 52.733,16.154 51.870,21.223 C54.209,18.565 55.349,16.098 56.100,14.989 C55.272,7.530 57.191,0.309 63.239,0.004 C64.925,-0.031 66.076,0.852 66.301,2.332 C66.783,5.614 62.894,8.374 59.995,13.371 C60.050,13.772 60.104,14.177 60.156,14.590 C60.443,16.887 61.570,18.036 63.008,17.968 C64.717,17.902 65.796,16.779 66.596,15.585 C66.345,10.113 69.168,7.019 73.012,6.964 C75.195,6.974 76.543,8.054 76.759,9.597 C77.209,12.883 73.580,13.390 70.717,14.923 C70.747,15.181 70.776,15.442 70.804,15.706 C70.990,17.455 72.705,17.860 73.766,17.842 C77.035,17.753 78.597,14.880 79.383,14.135 C79.284,12.586 79.305,10.978 79.460,9.503 C79.025,9.493 78.591,9.486 78.157,9.478 C77.925,9.474 77.794,9.363 77.771,9.198 C77.650,8.322 77.674,7.892 78.244,7.179 C78.622,7.186 79.176,7.195 79.813,7.183 C80.301,4.796 81.125,3.130 82.193,3.151 C83.467,3.184 83.924,4.236 84.343,5.364 C84.012,5.989 83.688,6.618 83.368,7.248 C84.714,7.318 85.622,7.377 86.265,7.403 C86.557,7.413 86.598,7.521 86.635,7.846 C86.673,8.192 86.471,9.703 86.037,9.689 C85.573,9.673 83.962,9.478 83.122,9.455 C83.013,11.537 83.098,14.248 83.222,15.592 C83.348,16.883 83.616,17.773 84.073,17.777 C84.730,17.779 86.854,16.361 87.729,15.177 C87.412,10.772 89.996,7.412 94.883,7.661 C97.057,7.787 99.307,8.757 99.356,9.551 C99.372,9.799 98.803,9.945 97.116,9.832 C93.754,9.628 91.584,11.704 91.907,15.160 C92.064,16.912 93.161,18.448 95.204,18.534 C96.028,18.571 96.723,18.384 97.293,18.017 C95.954,16.997 95.101,15.503 94.950,13.780 C94.798,12.083 95.958,10.269 98.463,10.442 C100.353,10.576 101.361,11.934 101.478,13.682 C101.540,14.613 101.381,15.626 101.022,16.628 C101.079,16.630 101.136,16.635 101.193,16.639 C102.774,16.743 103.342,15.823 103.822,15.367 C103.820,12.712 104.190,10.794 105.703,8.685 C106.071,8.167 106.454,7.980 106.838,8.013 C107.666,8.081 108.470,9.227 108.863,10.090 C109.639,9.393 110.763,8.913 112.328,9.066 C114.992,9.321 116.345,10.710 116.313,12.681 C116.270,15.368 115.161,17.986 115.197,19.096 C115.206,19.404 115.296,19.582 115.520,19.605 C116.598,19.691 119.047,16.624 119.606,16.700 C119.748,16.716 119.847,16.813 119.910,16.981 C119.942,17.067 119.965,17.170 119.980,17.292 C119.987,17.353 119.993,17.418 119.997,17.489 C120.001,17.559 120.002,17.633 120.003,17.713 C119.997,20.073 116.999,22.923 113.954,22.765 ZM43.194,29.294 C43.208,30.521 44.382,31.122 45.101,31.077 C45.961,31.030 46.693,29.453 47.259,27.470 C44.481,28.446 43.182,28.412 43.194,29.294 ZM43.537,17.100 C43.682,18.350 44.144,19.615 45.442,19.509 C46.680,19.420 48.016,18.235 48.490,15.897 C48.634,13.924 48.913,11.248 49.103,9.559 C46.275,10.162 43.010,12.639 43.537,17.100 ZM63.268,3.201 C63.202,2.806 63.026,2.624 62.674,2.632 C61.403,2.692 59.866,5.136 59.818,9.744 C61.769,5.844 63.539,4.860 63.268,3.201 ZM73.245,10.073 C73.185,9.654 72.854,9.379 72.247,9.379 C71.088,9.382 70.701,10.970 70.660,12.836 C72.126,11.733 73.410,11.220 73.245,10.073 ZM99.479,13.675 C99.443,13.192 99.238,12.732 98.777,12.701 C98.431,12.674 98.221,13.276 98.256,13.732 C98.314,14.472 98.622,15.155 99.143,15.684 C99.432,14.976 99.521,14.243 99.479,13.675 ZM18.183,8.057 C18.182,8.057 17.152,7.024 16.765,5.495 C16.516,4.468 16.633,1.877 17.922,1.714 C19.198,1.563 20.730,3.761 20.892,4.447 C21.453,6.706 19.687,7.847 18.183,8.057 ZM6.746,27.551 C3.502,27.974 0.399,26.603 0.019,22.660 C0.005,22.508 -0.002,22.355 -0.003,22.198 C-0.004,22.042 0.002,21.883 0.013,21.722 C0.036,21.401 0.084,21.078 0.153,20.753 C0.291,20.105 0.515,19.464 0.806,18.889 C1.388,17.741 2.236,16.852 3.185,16.682 C3.566,16.614 4.252,16.554 4.331,17.136 C4.501,18.394 4.047,19.642 4.207,21.161 C4.349,22.531 4.967,23.694 6.652,23.432 C8.481,23.152 10.087,21.977 9.838,19.712 C9.312,15.549 3.367,15.815 2.358,10.828 C1.558,7.286 3.689,5.000 6.777,4.538 C9.186,4.172 11.763,5.190 12.456,8.131 C12.889,9.981 11.754,11.762 9.689,12.454 C11.953,13.747 14.264,14.845 14.725,18.606 C15.261,23.265 10.831,27.048 6.746,27.551 ZM9.692,8.437 C9.471,7.507 8.409,7.172 7.386,7.333 C6.508,7.471 5.693,7.957 5.386,8.688 C6.248,10.228 7.454,11.143 8.715,11.908 C9.363,11.036 9.948,9.508 9.692,8.437 ZM3.922,32.707 C9.649,31.579 25.999,29.388 32.033,29.178 C35.736,29.060 37.197,29.508 37.276,31.170 C37.293,31.528 37.025,31.972 35.966,32.005 C24.978,32.385 7.920,34.931 3.189,34.994 C3.106,34.996 3.023,34.996 2.941,34.995 C2.859,34.995 2.776,34.993 2.695,34.990 C2.532,34.985 2.371,34.975 2.216,34.962 C1.905,34.935 1.614,34.892 1.365,34.840 C0.866,34.732 0.531,34.578 0.528,34.404 C0.511,33.553 2.316,33.033 3.922,32.707 ZM53.698,29.749 C53.758,29.586 53.862,29.435 54.014,29.295 C54.316,29.016 54.807,28.780 55.509,28.570 C56.912,28.152 59.164,27.823 62.430,27.501 C67.789,26.985 77.659,26.415 87.262,26.411 C92.068,26.398 96.814,26.503 100.955,26.665 C105.097,26.826 108.637,27.034 111.035,27.209 C113.744,27.431 116.805,27.788 116.906,28.540 C116.945,28.851 114.778,29.228 112.590,29.332 C104.789,29.774 76.083,28.908 56.213,30.734 C55.974,30.758 55.754,30.774 55.554,30.784 C55.354,30.793 55.172,30.796 55.008,30.793 C54.681,30.786 54.425,30.753 54.228,30.705 C53.833,30.607 53.676,30.438 53.652,30.278 C53.645,30.230 53.641,30.184 53.639,30.138 C53.638,30.093 53.639,30.047 53.642,30.004 C53.650,29.916 53.669,29.831 53.698,29.749 Z" class="cls-1"/>
</svg>
